<svg xmlns="http://www.w3.org/2000/svg" width="176" height="48" viewBox="0 0 176 48"><g transform="translate(-1089.333 -8012)"><g transform="translate(36.096 7309.147)"><rect width="176" height="48" rx="4" transform="translate(1053.237 702.852)"/><path d="M1095.373,726.932a7.113,7.113,0,0,1,3.389-5.971,7.3,7.3,0,0,0-5.743-3.1c-2.414-.254-4.758,1.444-5.988,1.444-1.255,0-3.149-1.419-5.192-1.378a7.644,7.644,0,0,0-6.435,3.925c-2.782,4.815-.708,11.892,1.959,15.786,1.333,1.908,2.892,4.034,4.934,3.959,2-.08,2.741-1.269,5.147-1.269,2.387,0,3.086,1.269,5.167,1.223,2.14-.034,3.49-1.914,4.777-3.84a15.671,15.671,0,0,0,2.183-4.448A6.879,6.879,0,0,1,1095.373,726.932Zm-3.931-11.637a7,7,0,0,0,1.6-5.019,7.127,7.127,0,0,0-4.614,2.388,6.66,6.66,0,0,0-1.644,4.833,5.884,5.884,0,0,0,4.656-2.2Z" fill="#fff"/><path d="M1124.275,741.321h-2.787l-1.528-4.8h-5.307l-1.454,4.8h-2.717l5.263-16.339h3.249l5.285,16.339Zm-4.777-6.814-1.382-4.267c-.145-.435-.421-1.466-.824-3.078h-.049q-.243,1.043-.778,3.078l-1.358,4.267Zm18.283.777a6.686,6.686,0,0,1-1.634,4.753,4.8,4.8,0,0,1-3.633,1.548,3.633,3.633,0,0,1-3.364-1.671v6.181h-2.617V733.409q0-1.884-.1-3.867h2.3l.145,1.867h.05a4.66,4.66,0,0,1,7.454-.465,6.519,6.519,0,0,1,1.393,4.343Zm-2.667.1a4.85,4.85,0,0,0-.777-2.837,2.676,2.676,0,0,0-2.278-1.163,2.707,2.707,0,0,0-1.758.643,2.963,2.963,0,0,0-1.03,1.685,3.425,3.425,0,0,0-.121.8v1.965a3.155,3.155,0,0,0,.788,2.171,2.618,2.618,0,0,0,2.048.884,2.686,2.686,0,0,0,2.3-1.138,5.006,5.006,0,0,0,.826-3.009Zm16.22-.1a6.677,6.677,0,0,1-1.634,4.753,4.8,4.8,0,0,1-3.634,1.548,3.633,3.633,0,0,1-3.364-1.671v6.181h-2.619V733.409q0-1.884-.1-3.867h2.3l.145,1.867h.048a4.665,4.665,0,0,1,7.457-.465,6.524,6.524,0,0,1,1.392,4.343Zm-2.667.1a4.85,4.85,0,0,0-.777-2.837,2.666,2.666,0,0,0-2.276-1.163,2.731,2.731,0,0,0-1.76.643,2.965,2.965,0,0,0-1.029,1.685,3.431,3.431,0,0,0-.121.8v1.965a3.164,3.164,0,0,0,.786,2.171,2.621,2.621,0,0,0,2.051.884,2.68,2.68,0,0,0,2.3-1.138,5.021,5.021,0,0,0,.822-3.009Zm17.823,1.355a4.364,4.364,0,0,1-1.453,3.394,6.443,6.443,0,0,1-4.452,1.431,7.783,7.783,0,0,1-4.23-1.017l.6-2.183a7.267,7.267,0,0,0,3.781,1.02,3.556,3.556,0,0,0,2.3-.667,2.176,2.176,0,0,0,.826-1.781,2.281,2.281,0,0,0-.68-1.673,6.305,6.305,0,0,0-2.253-1.259q-4.293-1.6-4.294-4.681a4.131,4.131,0,0,1,1.515-3.3,5.985,5.985,0,0,1,4.013-1.284,7.927,7.927,0,0,1,3.71.775l-.656,2.133a6.469,6.469,0,0,0-3.14-.751,3.2,3.2,0,0,0-2.167.68,1.935,1.935,0,0,0-.656,1.48,2,2,0,0,0,.752,1.6,8.381,8.381,0,0,0,2.374,1.258,8.073,8.073,0,0,1,3.1,1.988,4.13,4.13,0,0,1,1,2.833Zm8.679-5.233h-2.887v5.718q0,2.181,1.528,2.182a4.555,4.555,0,0,0,1.164-.122l.073,1.988a5.977,5.977,0,0,1-2.035.289,3.142,3.142,0,0,1-2.424-.945,4.648,4.648,0,0,1-.873-3.177V731.5h-1.72v-1.965h1.72v-2.156l2.571-.779v2.934h2.886v1.97Zm12.994,3.828a6.458,6.458,0,0,1-1.553,4.461,5.533,5.533,0,0,1-4.314,1.792,5.274,5.274,0,0,1-4.134-1.717,6.267,6.267,0,0,1-1.54-4.339,6.414,6.414,0,0,1,1.588-4.483,5.5,5.5,0,0,1,4.28-1.747,5.376,5.376,0,0,1,4.168,1.724A6.174,6.174,0,0,1,1188.163,735.332Zm-2.713.063a5.278,5.278,0,0,0-.7-2.783,2.591,2.591,0,0,0-2.352-1.4,2.631,2.631,0,0,0-2.4,1.4,5.363,5.363,0,0,0-.7,2.83,5.258,5.258,0,0,0,.7,2.782,2.687,2.687,0,0,0,4.731-.024,5.3,5.3,0,0,0,.723-2.8Zm11.226-3.555a4.651,4.651,0,0,0-.825-.073,2.473,2.473,0,0,0-2.134,1.046,3.937,3.937,0,0,0-.653,2.325v6.183h-2.617v-8.072q0-1.855-.077-3.707h2.283l.1,2.253h.072a4.037,4.037,0,0,1,1.309-1.868,3.185,3.185,0,0,1,1.892-.63,4.336,4.336,0,0,1,.654.047v2.5Zm11.71,3.031a6.08,6.08,0,0,1-.1,1.189h-7.855a3.42,3.42,0,0,0,1.14,2.667,3.9,3.9,0,0,0,2.569.824,8.726,8.726,0,0,0,3.178-.557l.41,1.816a9.8,9.8,0,0,1-3.949.729,5.725,5.725,0,0,1-4.3-1.612,5.953,5.953,0,0,1-1.563-4.326,6.753,6.753,0,0,1,1.457-4.437,5.028,5.028,0,0,1,4.12-1.889,4.4,4.4,0,0,1,3.858,1.889,6.373,6.373,0,0,1,1.038,3.706Zm-2.5-.678a3.55,3.55,0,0,0-.508-2.012,2.284,2.284,0,0,0-2.085-1.092,2.483,2.483,0,0,0-2.084,1.066,3.913,3.913,0,0,0-.775,2.037Z" fill="#fff"/><path d="M1113.9,719.205a17.427,17.427,0,0,1-1.883-.1v-7.9a14.43,14.43,0,0,1,2.217-.168c3,0,4.386,1.478,4.386,3.884C1118.613,717.705,1116.981,719.205,1113.9,719.205Zm.438-7.149a5.35,5.35,0,0,0-1.034.082v6a6.294,6.294,0,0,0,.868.037,2.846,2.846,0,0,0,3.1-2.566,2.905,2.905,0,0,0-.013-.653,2.62,2.62,0,0,0-2.3-2.9A2.66,2.66,0,0,0,1114.333,712.056Zm8.59,7.207a2.754,2.754,0,0,1-2.8-2.712,2.633,2.633,0,0,1,.009-.265,2.817,2.817,0,0,1,2.558-3.056,2.749,2.749,0,0,1,3.115,2.955,2.836,2.836,0,0,1-2.6,3.058c-.1.007-.192.011-.288.009Zm.049-5.1c-.934,0-1.525.869-1.525,2.085,0,1.191.606,2.06,1.513,2.06s1.511-.933,1.511-2.086c0-1.177-.594-2.059-1.5-2.059Zm12.484-.821-1.809,5.788h-1.18l-.751-2.513q-.277-.922-.465-1.867h-.027a12.212,12.212,0,0,1-.463,1.867l-.8,2.513h-1.192l-1.7-5.788h1.323l.656,2.752c.157.656.284,1.274.392,1.858h.026a18.69,18.69,0,0,1,.476-1.848l.822-2.76h1.05l.786,2.7c.191.655.344,1.3.465,1.906h.035a16.967,16.967,0,0,1,.391-1.906l.7-2.7Zm6.666,5.788h-1.286v-3.324c0-1.025-.4-1.537-1.168-1.537a1.334,1.334,0,0,0-1.29,1.375l0,.043v3.443h-1.286V715c0-.513-.012-1.066-.048-1.656h1.132l.061.894h.036a2.075,2.075,0,0,1,1.834-1.011c1.217,0,2.015.933,2.015,2.441v3.466Zm3.55,0h-1.288v-8.444h1.288Zm4.693.133a2.754,2.754,0,0,1-2.8-2.711,2.628,2.628,0,0,1,.008-.267,2.818,2.818,0,0,1,2.559-3.056,2.879,2.879,0,0,1,3.122,2.655,2.537,2.537,0,0,1-.009.3,2.835,2.835,0,0,1-2.6,3.057c-.095.008-.191.01-.287.009Zm.047-5.1c-.933,0-1.524.87-1.524,2.086,0,1.19.609,2.06,1.512,2.06s1.512-.934,1.512-2.086c0-1.177-.592-2.06-1.5-2.06Zm7.912,4.967-.094-.666h-.035a1.976,1.976,0,0,1-1.693.8,1.68,1.68,0,0,1-1.772-1.585c0-.04,0-.079,0-.118,0-1.43,1.239-2.168,3.384-2.168v-.107q0-1.143-1.2-1.144a2.692,2.692,0,0,0-1.514.431l-.266-.847a3.7,3.7,0,0,1,1.988-.5c1.513,0,2.277.8,2.277,2.4v2.133a8.734,8.734,0,0,0,.084,1.381Zm-.177-2.881c-1.428,0-2.146.344-2.146,1.166a.821.821,0,0,0,.729.9.725.725,0,0,0,.154,0,1.235,1.235,0,0,0,1.264-1.18Zm7.5,2.881-.06-.933h-.035a1.94,1.94,0,0,1-1.866,1.066,2.638,2.638,0,0,1-2.444-2.82c0-.045.007-.09.013-.136a2.745,2.745,0,0,1,2.38-3.067q.077-.009.153-.015a1.743,1.743,0,0,1,1.634.785h.026v-3.321h1.288v6.885c0,.559.013,1.085.048,1.559Zm-.191-3.4a1.4,1.4,0,0,0-1.3-1.5l-.059,0c-.953,0-1.537.845-1.537,2.036,0,1.167.6,1.967,1.51,1.967a1.445,1.445,0,0,0,1.385-1.5l0-.034Zm9.454,3.537a2.754,2.754,0,0,1-2.794-2.714,2.578,2.578,0,0,1,.008-.264,2.818,2.818,0,0,1,2.559-3.056,2.749,2.749,0,0,1,3.113,2.956,2.835,2.835,0,0,1-2.593,3.057,2.6,2.6,0,0,1-.293.009Zm.05-5.1c-.934,0-1.524.87-1.524,2.086,0,1.19.609,2.06,1.512,2.06s1.513-.934,1.513-2.086c0-1.177-.594-2.06-1.5-2.06Zm9.757,4.967h-1.289v-3.324c0-1.025-.392-1.536-1.167-1.536a1.333,1.333,0,0,0-1.287,1.377l0,.041v3.442h-1.288V715c0-.513-.011-1.066-.048-1.656h1.134l.058.9h.037a2.08,2.08,0,0,1,1.834-1.012c1.216,0,2.016.934,2.016,2.441Zm8.659-4.823h-1.416v2.812c0,.716.249,1.066.749,1.066a2.382,2.382,0,0,0,.571-.06l.036.977a2.8,2.8,0,0,1-1,.143c-1.013,0-1.619-.559-1.619-2.024V714.3h-.844v-.965h.844v-1.066l1.262-.382v1.442h1.417v.976Zm6.812,4.823h-1.285v-3.3c0-1.037-.394-1.56-1.168-1.56a1.263,1.263,0,0,0-1.293,1.234,1.049,1.049,0,0,0,0,.137v3.488h-1.284v-8.444h1.284v3.477h.026a1.951,1.951,0,0,1,1.742-.94c1.224,0,1.974.952,1.974,2.465v3.442Zm6.978-2.582H1203.3a1.66,1.66,0,0,0,1.6,1.72,1.564,1.564,0,0,0,.227-.008,4.343,4.343,0,0,0,1.56-.266l.2.894a4.856,4.856,0,0,1-1.943.357,2.693,2.693,0,0,1-2.884-2.919,2.827,2.827,0,0,1,2.532-3.094c.069-.007.138-.012.207-.013a2.855,2.855,0,0,1,2.375,3.267c0,.022-.007.044-.011.066Zm-1.178-.918c0-.892-.451-1.524-1.275-1.524a1.528,1.528,0,0,0-1.407,1.524Z" fill="#fff"/></g></g></svg>