<svg width="60" height="60" viewBox="0 0 60 60" fill="none" xmlns="http://www.w3.org/2000/svg">
<circle cx="30" cy="30" r="30" fill="white"/>
<circle cx="29.9999" cy="30" r="27.3214" fill="#E0E8F3"/>
<g clip-path="url(#clip0_339_14160)">
<path d="M16.217 26.0093L9.61634 26.6842C7.97964 26.8515 6.78877 28.3112 6.95647 29.9444L7.63275 36.531C7.80044 38.1642 9.26319 39.3526 10.8999 39.1852L17.5005 38.5104C19.1372 38.343 20.3281 36.8834 20.1604 35.2501L19.4841 28.6636C19.3164 27.0303 17.8537 25.842 16.217 26.0093Z" fill="#97CE38"/>
<path d="M17.9523 32.8265L17.801 31.3679H16.6659C16.5658 31.1041 16.4319 30.8543 16.2677 30.6247L16.881 29.6709L15.7419 28.741L14.9454 29.5358C14.6909 29.4226 14.4234 29.3411 14.1489 29.2934L13.906 28.1846L12.4403 28.3356V29.4722C12.1771 29.572 11.9281 29.7056 11.6996 29.8696L10.7397 29.2576L9.81178 30.3943L10.6083 31.1891C10.493 31.4424 10.4113 31.7096 10.3653 31.9839L9.25415 32.2264L9.40156 33.6889H10.5405C10.6391 33.9522 10.7731 34.2009 10.9388 34.4281L10.3216 35.3819L11.4606 36.3119L12.277 35.517C12.5305 35.6329 12.7984 35.7144 13.0736 35.7594L13.3205 36.8683L14.7821 36.7212V35.5846C15.0472 35.4863 15.2977 35.3526 15.5268 35.1871L16.4827 35.8032L17.4146 34.6626L16.6181 33.8677C16.7316 33.6138 16.8132 33.3468 16.8611 33.0729L17.9523 32.8265ZM13.7386 34.0942C13.3252 34.1365 12.9119 34.0133 12.5893 33.7518C12.2668 33.4903 12.0614 33.1118 12.0182 32.6993C11.9967 32.4949 12.0158 32.2883 12.0745 32.0914C12.1332 31.8944 12.2302 31.7108 12.3601 31.5514C12.4899 31.3919 12.65 31.2595 12.8313 31.1619C13.0125 31.0643 13.2112 31.0033 13.4161 30.9824C13.6214 30.961 13.8289 30.9802 14.0268 31.0389C14.2247 31.0976 14.4091 31.1948 14.5693 31.3247C14.7295 31.4547 14.8624 31.6149 14.9605 31.7962C15.0585 31.9776 15.1196 32.1764 15.1405 32.3814C15.1754 32.7926 15.0486 33.2013 14.787 33.5209C14.5254 33.8406 14.1494 34.0462 13.7386 34.0942Z" fill="white"/>
<path d="M22.7037 10.2737L16.0924 11.4228C14.452 11.7079 13.3539 13.266 13.6396 14.9029L14.7911 21.5001C15.0768 23.137 16.6381 24.2328 18.2785 23.9477L24.8898 22.7987C26.5302 22.5136 27.6284 20.9555 27.3427 19.3186L26.1912 12.7214C25.9055 11.0845 24.3441 9.98863 22.7037 10.2737Z" fill="#E5687D"/>
<path d="M15.9331 15.8407L16.6859 20.6098C16.6859 20.6098 19.0754 18.3882 20.8915 20.2124L20.1388 15.4433C18.3347 13.6152 15.9331 15.8407 15.9331 15.8407Z" fill="white"/>
<path d="M24.2687 14.5253L25.0214 19.2944C25.0214 19.2944 22.0543 17.9153 20.8914 20.1886L20.1387 15.4195C21.2976 13.1503 24.2687 14.5253 24.2687 14.5253Z" fill="white"/>
<path d="M32.3697 10.7273L30.9967 18.0479C30.6561 19.8644 31.8556 21.6126 33.6761 21.9526L41.0122 23.3226C42.8326 23.6626 44.5846 22.4656 44.9253 20.649L46.2982 13.3284C46.6389 11.5119 45.4393 9.76367 43.6189 9.42371L36.2827 8.05369C34.4623 7.71373 32.7103 8.91073 32.3697 10.7273Z" fill="#28BDE6"/>
<path d="M43.0431 12.7212L39.5782 12.0695C39.4435 12.0442 39.3051 12.0458 39.171 12.0741C39.0369 12.1025 38.9097 12.157 38.7968 12.2346C38.6839 12.3121 38.5875 12.4112 38.5131 12.5261C38.4387 12.641 38.3879 12.7695 38.3634 12.904L37.8696 15.527C37.8182 15.7968 37.8762 16.0759 38.0307 16.3031C38.1853 16.5304 38.4238 16.6872 38.694 16.7392L40.1995 17.0253C40.3047 17.3394 40.4919 17.6198 40.7418 17.8378C40.9917 18.0557 41.2952 18.2033 41.6212 18.2653C41.5211 18.1193 41.4515 17.9546 41.4166 17.7812C41.3817 17.6077 41.3822 17.429 41.4181 17.2558L42.1549 17.3949C42.4229 17.4403 42.6979 17.3792 42.9212 17.2247C43.1446 17.0702 43.2984 16.8346 43.3497 16.5683L43.8476 13.9453C43.899 13.675 43.8412 13.3954 43.6867 13.1676C43.5323 12.9397 43.2937 12.7821 43.0231 12.7292L43.0431 12.7212ZM41.5097 15.5906L39.2396 15.1654C39.2158 15.1609 39.1932 15.1519 39.1729 15.1387C39.1526 15.1255 39.1351 15.1084 39.1214 15.0885C39.1077 15.0686 39.0981 15.0462 39.0931 15.0225C39.0881 14.9989 39.0879 14.9745 39.0923 14.9508C39.0967 14.927 39.1058 14.9044 39.119 14.8841C39.1322 14.8639 39.1493 14.8464 39.1693 14.8328C39.1893 14.8191 39.2117 14.8095 39.2354 14.8046C39.2591 14.7996 39.2836 14.7993 39.3074 14.8037L41.5735 15.2329C41.5972 15.2368 41.6199 15.2453 41.6402 15.258C41.6605 15.2708 41.6781 15.2875 41.6918 15.3071C41.7056 15.3268 41.7152 15.349 41.7202 15.3724C41.7252 15.3958 41.7254 15.4201 41.7208 15.4436C41.717 15.4672 41.7085 15.4899 41.6957 15.5102C41.6829 15.5305 41.6662 15.548 41.6465 15.5617C41.6268 15.5754 41.6046 15.585 41.5811 15.59C41.5576 15.595 41.5333 15.5952 41.5097 15.5906ZM42.4297 14.6487L39.4427 14.0884C39.395 14.0787 39.353 14.0509 39.3255 14.0109C39.298 13.9708 39.2872 13.9216 39.2954 13.8737C39.2997 13.8499 39.3087 13.8272 39.3219 13.8069C39.335 13.7866 39.3521 13.7691 39.3721 13.7554C39.3921 13.7417 39.4147 13.7321 39.4384 13.7272C39.4622 13.7223 39.4866 13.7221 39.5104 13.7267L42.4974 14.291C42.5211 14.2949 42.5439 14.3034 42.5642 14.3161C42.5845 14.3289 42.6021 14.3456 42.6158 14.3652C42.6296 14.3849 42.6392 14.4071 42.6442 14.4305C42.6492 14.454 42.6494 14.4782 42.6448 14.5017C42.6405 14.5255 42.6315 14.5482 42.6184 14.5685C42.6052 14.5889 42.5881 14.6064 42.5681 14.6201C42.5481 14.6337 42.5255 14.6433 42.5018 14.6482C42.478 14.6532 42.4535 14.6533 42.4297 14.6487Z" fill="white"/>
<path d="M38.71 14.1479L35.245 13.4961C35.1108 13.4708 34.973 13.4721 34.8393 13.4999C34.7057 13.5277 34.5788 13.5816 34.466 13.6583C34.3532 13.7351 34.2567 13.8333 34.1819 13.9473C34.1072 14.0613 34.0557 14.1889 34.0303 14.3227L33.5364 16.9458C33.4909 17.2131 33.5522 17.4876 33.707 17.7104C33.8619 17.9333 34.098 18.0868 34.3648 18.138L35.9141 18.4281C35.8851 18.6033 35.8207 18.7708 35.7248 18.9204C35.629 19.07 35.5036 19.1986 35.3565 19.2985C35.6828 19.3589 36.0194 19.3315 36.3316 19.219C36.6438 19.1066 36.9203 18.9131 37.1328 18.6586L37.8297 18.7898C38.1004 18.8388 38.3796 18.7795 38.6069 18.6249C38.8342 18.4702 38.9913 18.2325 39.0444 17.9631L39.5383 15.3362C39.5838 15.0688 39.5226 14.7943 39.3677 14.5715C39.2129 14.3486 38.9768 14.1952 38.71 14.1439V14.1479ZM35.1773 15.1534C35.2012 15.1577 35.2239 15.1666 35.2443 15.1798C35.2647 15.1929 35.2822 15.21 35.2959 15.2299C35.3096 15.2499 35.3192 15.2724 35.3241 15.2961C35.3291 15.3198 35.3293 15.3442 35.3247 15.368C35.3151 15.4153 35.287 15.457 35.2467 15.4838C35.2064 15.5106 35.1571 15.5204 35.1096 15.5111C35.086 15.5073 35.0634 15.4987 35.0432 15.4859C35.023 15.4731 35.0058 15.4564 34.9924 15.4367C34.9789 15.4169 34.9696 15.3946 34.9651 15.3712C34.9606 15.3478 34.961 15.3237 34.9662 15.3004C34.97 15.2768 34.9786 15.2541 34.9914 15.2338C35.0042 15.2135 35.0209 15.196 35.0406 15.1823C35.0603 15.1686 35.0825 15.1589 35.106 15.154C35.1295 15.149 35.1537 15.1488 35.1773 15.1534ZM37.8935 17.1405L34.9065 16.5761C34.8591 16.5674 34.817 16.5404 34.7894 16.501C34.7619 16.4616 34.751 16.4129 34.7591 16.3655C34.7634 16.3417 34.7725 16.319 34.7856 16.2986C34.7988 16.2783 34.8158 16.2608 34.8358 16.2472C34.8558 16.2335 34.8784 16.2239 34.9021 16.219C34.9259 16.2141 34.9504 16.2139 34.9742 16.2184L37.9612 16.7788C37.985 16.7833 38.0077 16.7923 38.028 16.8055C38.0483 16.8187 38.0657 16.8357 38.0794 16.8557C38.0931 16.8756 38.1027 16.898 38.1077 16.9216C38.1127 16.9453 38.113 16.9697 38.1086 16.9934C38.1041 17.0172 38.095 17.0398 38.0817 17.0601C38.0685 17.0803 38.0515 17.0977 38.0316 17.1114C38.0116 17.125 37.989 17.1346 37.9654 17.1396C37.9417 17.1446 37.9173 17.1449 37.8935 17.1405ZM38.0966 16.0634L35.8304 15.6382C35.8065 15.6339 35.7838 15.6249 35.7634 15.6118C35.7431 15.5986 35.7256 15.5816 35.7119 15.5616C35.6982 15.5417 35.6885 15.5192 35.6836 15.4955C35.6787 15.4718 35.6785 15.4474 35.6831 15.4236C35.6928 15.376 35.7206 15.334 35.7608 15.3066C35.8009 15.2791 35.8502 15.2684 35.8982 15.2766L38.1643 15.7058C38.2123 15.7118 38.256 15.7364 38.2858 15.7744C38.3157 15.8123 38.3292 15.8606 38.3236 15.9085C38.3166 15.9567 38.2912 16.0003 38.2525 16.03C38.2138 16.0597 38.1649 16.0731 38.1165 16.0674L38.0966 16.0634Z" fill="white"/>
<path d="M40.6234 28.0262L38.8383 34.3594C38.3953 35.9313 39.3131 37.5641 40.8884 38.0062L47.2351 39.7874C48.8104 40.2295 50.4465 39.3136 50.8896 37.7417L52.6746 31.4084C53.1176 29.8365 52.1998 28.2039 50.6246 27.7618L44.2778 25.9805C42.7026 25.5384 41.0664 26.4543 40.6234 28.0262Z" fill="#A58CCA"/>
<path d="M48.2128 35.7277L47.4163 32.6875C47.3831 32.5577 47.3684 32.4239 47.3725 32.29C47.3709 32.1552 47.391 32.021 47.4322 31.8926L47.6911 31.0381L47.8584 30.4977H47.9101H47.9738H48.0057H48.0655H48.1252L48.1809 30.4698H48.2088C48.2489 30.4304 48.2801 30.383 48.3004 30.3307C48.3246 30.2499 48.316 30.1629 48.2765 30.0883C48.2366 30.0135 48.1697 29.9567 48.0893 29.9293L47.6911 29.8141L45.9667 29.2855C45.925 29.2676 45.88 29.2587 45.8346 29.2593C45.7892 29.2599 45.7445 29.2701 45.7033 29.2891C45.6622 29.3081 45.6255 29.3356 45.5957 29.3697C45.5659 29.4039 45.5437 29.4439 45.5305 29.4872C45.5172 29.5305 45.5133 29.5761 45.5189 29.621C45.5245 29.6659 45.5395 29.7092 45.563 29.7479C45.5865 29.7866 45.6179 29.82 45.6552 29.8457C45.6925 29.8715 45.7349 29.8892 45.7795 29.8975H45.8312L45.401 31.2925C45.3296 31.5405 45.1919 31.7644 45.0028 31.9403L42.6451 34.0188C42.4707 34.1752 42.3649 34.3937 42.3508 34.6273C42.3366 34.8608 42.4152 35.0905 42.5694 35.2667C42.6777 35.3856 42.8149 35.4746 42.9677 35.5251L47.0659 36.7769C47.178 36.8125 47.2963 36.8249 47.4134 36.8133C47.5305 36.8017 47.644 36.7663 47.7469 36.7094C47.8156 36.6702 47.8797 36.6236 47.9381 36.5703C48.0553 36.4673 48.1426 36.3347 48.191 36.1865C48.2393 36.0383 48.2468 35.8799 48.2128 35.7277Z" fill="white"/>
<path d="M38.9211 41.2087C38.9169 39.4998 38.2329 37.8624 37.0193 36.6566C35.8057 35.4509 34.1619 34.7753 32.4493 34.7785H27.2719C25.5593 34.7827 23.9185 35.4653 22.7102 36.6763C21.5018 37.8873 20.8248 39.5276 20.8279 41.2366V49.0618C20.8263 49.2316 20.8588 49.4001 20.9233 49.5573C20.9879 49.7145 21.0832 49.8573 21.2037 49.9773C21.3243 50.0972 21.4677 50.1919 21.6254 50.2558C21.7832 50.3197 21.9521 50.3515 22.1223 50.3494L37.6149 50.3136C37.785 50.3147 37.9536 50.282 38.1109 50.2174C38.2682 50.1528 38.411 50.0577 38.531 49.9375C38.6511 49.8173 38.7461 49.6744 38.8103 49.5173C38.8745 49.3601 38.9069 49.1918 38.9053 49.022L38.9211 41.2087Z" fill="#1761BB"/>
<path d="M29.8688 37.3618C31.2942 37.3618 32.4496 36.2088 32.4496 34.7865C32.4496 33.3642 31.2942 32.2112 29.8688 32.2112C28.4435 32.2112 27.2881 33.3642 27.2881 34.7865C27.2881 36.2088 28.4435 37.3618 29.8688 37.3618Z" fill="#F0CC90"/>
<g opacity="0.1">
<path opacity="0.1" d="M36.2213 35.9867C35.1202 35.2049 33.8009 34.7879 32.4496 34.7944H27.2721C25.9191 34.797 24.6017 35.2269 23.5085 36.0225C24.2707 36.9734 25.2381 37.7406 26.3386 38.2668C27.4391 38.793 28.6443 39.0647 29.8646 39.0616C31.0849 39.0586 32.2888 38.7808 33.3866 38.2491C34.4845 37.7174 35.4479 36.9454 36.2053 35.9906L36.2213 35.9867Z" fill="#230600"/>
</g>
<path d="M35.0184 27.8073C34.9263 26.5009 34.3405 25.2782 33.3795 24.3864C32.4185 23.4946 31.154 23.0003 29.8417 23.0033C28.5293 23.0063 27.2671 23.5065 26.3103 24.4028C25.3534 25.299 24.7733 26.5244 24.6873 27.8311V30.9588C24.7798 32.2651 25.366 33.4876 26.3274 34.379C27.2887 35.2705 28.5534 35.7644 29.8658 35.7608C31.1781 35.7573 32.4402 35.2566 33.3967 34.36C34.3532 33.4634 34.9329 32.2378 35.0184 30.931V27.8073Z" fill="#F0CC90"/>
<path d="M15.559 27.5134C15.4853 27.5091 15.4159 27.4777 15.364 27.4254C15.3122 27.373 15.2816 27.3034 15.2782 27.2299C15.2747 27.1563 15.2985 27.0841 15.3453 27.0271C15.392 26.9701 15.4582 26.9324 15.5311 26.9213L16.3276 26.8378C16.3678 26.8314 16.4089 26.8333 16.4483 26.8433C16.4877 26.8533 16.5246 26.8713 16.5568 26.896C16.589 26.9208 16.6159 26.9519 16.6356 26.9873C16.6554 27.0228 16.6676 27.0619 16.6717 27.1023C16.6758 27.1427 16.6715 27.1835 16.6593 27.2221C16.647 27.2608 16.627 27.2966 16.6003 27.3273C16.5737 27.358 16.5411 27.3829 16.5045 27.4006C16.4678 27.4182 16.428 27.4282 16.3874 27.43L15.5909 27.5134H15.559Z" fill="white"/>
<path d="M8.24282 30.7885C8.16846 30.7879 8.09684 30.7601 8.04175 30.7102C7.98666 30.6604 7.95195 30.592 7.94412 30.5182L7.87237 29.8108C7.84251 29.5391 7.86733 29.2642 7.94529 29.0021C8.02325 28.7401 8.15284 28.4961 8.32644 28.2847C8.4995 28.0728 8.71274 27.897 8.95399 27.7674C9.19523 27.6378 9.45975 27.557 9.73234 27.5296L14.3601 27.0567C14.439 27.0499 14.5175 27.0738 14.5791 27.1234C14.6407 27.1731 14.6807 27.2446 14.6907 27.323C14.6985 27.4015 14.6748 27.4799 14.6248 27.5409C14.5748 27.602 14.5025 27.6408 14.4238 27.6488L9.79204 28.1218C9.40062 28.1629 9.04137 28.3569 8.79287 28.6615C8.54437 28.9661 8.42678 29.3564 8.46578 29.7472L8.53754 30.4586C8.54194 30.4976 8.53843 30.537 8.52733 30.5746C8.51623 30.6122 8.49774 30.6473 8.47288 30.6776C8.44802 30.708 8.41727 30.7331 8.38255 30.7515C8.34782 30.7698 8.30977 30.781 8.27063 30.7845L8.24282 30.7885Z" fill="white"/>
<path d="M8.49372 33.117C8.42015 33.1174 8.34912 33.0902 8.29458 33.041C8.24005 32.9917 8.20596 32.9238 8.199 32.8508L8.09545 31.8731C8.08766 31.7946 8.11136 31.7162 8.16137 31.6551C8.21139 31.5941 8.28362 31.5553 8.36226 31.5472C8.44136 31.5394 8.52035 31.563 8.5822 31.6128C8.64405 31.6626 8.68382 31.7347 8.69285 31.8135L8.79242 32.7912C8.8002 32.8697 8.77651 32.948 8.72649 33.0091C8.67647 33.0702 8.60425 33.109 8.52561 33.117H8.49372Z" fill="white"/>
<path d="M22.0348 44.4711C21.9559 44.4701 21.8805 44.4384 21.8247 44.3827C21.7689 44.327 21.7371 44.2518 21.7361 44.1731V41.248C21.7347 39.9785 22.1684 38.7466 22.9653 37.757C23.7622 36.7673 24.8743 36.0794 26.117 35.8073C26.1555 35.7986 26.1953 35.7977 26.2342 35.8047C26.273 35.8116 26.31 35.8262 26.3431 35.8477C26.3761 35.8692 26.4046 35.8971 26.4266 35.9298C26.4487 35.9624 26.4639 35.9992 26.4714 36.0378C26.488 36.1147 26.4735 36.1951 26.431 36.2614C26.3885 36.3276 26.3215 36.3744 26.2445 36.3915C25.1329 36.6317 24.1371 37.244 23.4221 38.1266C22.7071 39.0092 22.3159 40.1092 22.3136 41.2441V44.1731C22.3136 44.2521 22.2821 44.3279 22.226 44.3838C22.17 44.4397 22.0941 44.4711 22.0149 44.4711H22.0348Z" fill="white"/>
<path d="M22.0348 47.1104C21.9562 47.1104 21.8809 47.0796 21.825 47.0246C21.7691 46.9695 21.7371 46.8947 21.7361 46.8163V45.3102C21.7361 45.2318 21.767 45.1566 21.8221 45.1008C21.8773 45.045 21.9523 45.0131 22.0308 45.0121C22.1097 45.0131 22.1851 45.0448 22.2409 45.1005C22.2967 45.1562 22.3285 45.2314 22.3295 45.3102V46.8124C22.3306 46.8515 22.3237 46.8904 22.3094 46.9268C22.295 46.9632 22.2734 46.9963 22.2459 47.0241C22.2183 47.052 22.1854 47.074 22.1491 47.0888C22.1129 47.1036 22.074 47.111 22.0348 47.1104Z" fill="white"/>
<path d="M25.89 31.2534C25.8111 31.2524 25.7358 31.2206 25.68 31.165C25.6242 31.1093 25.5923 31.0341 25.5913 30.9553V27.8276C25.5892 26.6984 26.0365 25.6145 26.8348 24.8142C27.6331 24.0138 28.7172 23.5625 29.8489 23.5593C29.9281 23.5593 30.004 23.5907 30.06 23.6466C30.1161 23.7025 30.1476 23.7783 30.1476 23.8574C30.1476 23.9364 30.1161 24.0122 30.06 24.0681C30.004 24.124 29.9281 24.1555 29.8489 24.1555C28.8756 24.1597 27.9436 24.5484 27.2569 25.2366C26.5702 25.9248 26.1847 26.8565 26.1847 27.8276V30.9553C26.1847 31.0344 26.1533 31.1102 26.0973 31.1661C26.0413 31.222 25.9652 31.2534 25.886 31.2534H25.89Z" fill="white"/>
<path d="M21.5407 12.0258C21.4655 12.0266 21.3926 11.999 21.3368 11.9486C21.2811 11.8981 21.2464 11.8285 21.2399 11.7536C21.2334 11.6788 21.2554 11.6042 21.3015 11.5449C21.3477 11.4855 21.4146 11.4458 21.4889 11.4336L22.8471 11.1991C22.8855 11.1923 22.9249 11.1932 22.9631 11.2017C23.0012 11.2102 23.0373 11.2262 23.0691 11.2488C23.101 11.2714 23.1281 11.3 23.1488 11.3331C23.1694 11.3662 23.1833 11.4031 23.1895 11.4415C23.1964 11.4802 23.1956 11.5198 23.1871 11.5581C23.1786 11.5964 23.1626 11.6327 23.14 11.6648C23.1175 11.6969 23.0887 11.7243 23.0555 11.7453C23.0223 11.7663 22.9854 11.7806 22.9466 11.7873L21.5925 12.0218L21.5407 12.0258Z" fill="white"/>
<path d="M14.9736 16.0279C14.904 16.0271 14.8368 16.002 14.7838 15.957C14.7307 15.912 14.695 15.85 14.6829 15.7815L14.5077 14.7919C14.4118 14.2396 14.5395 13.6719 14.8629 13.2136C15.1863 12.7553 15.6787 12.4438 16.2321 12.3478L20.1471 11.6682C20.1858 11.6614 20.2254 11.6623 20.2638 11.6708C20.3022 11.6793 20.3385 11.6953 20.3707 11.7178C20.4028 11.7403 20.4303 11.7689 20.4514 11.802C20.4725 11.8351 20.4868 11.872 20.4936 11.9106C20.5004 11.9492 20.4996 11.9888 20.491 12.0271C20.4825 12.0654 20.4664 12.1016 20.4439 12.1337C20.4213 12.1658 20.3926 12.1932 20.3595 12.2142C20.3263 12.2353 20.2894 12.2496 20.2507 12.2564L16.3357 12.9359C16.1387 12.9701 15.9505 13.0426 15.7817 13.1494C15.6128 13.2561 15.4666 13.395 15.3516 13.5581C15.2366 13.7213 15.1549 13.9054 15.1112 14.1001C15.0676 14.2947 15.0628 14.4961 15.0971 14.6926L15.2684 15.6782C15.2752 15.7168 15.2744 15.7564 15.2659 15.7947C15.2574 15.833 15.2414 15.8693 15.2189 15.9014C15.1963 15.9335 15.1676 15.9609 15.1344 15.9819C15.1012 16.0029 15.0641 16.0172 15.0254 16.0239L14.9736 16.0279Z" fill="white"/>
<path d="M43.4574 10.9369H43.4016L41.4502 10.5752C41.372 10.561 41.3027 10.5163 41.2575 10.4511C41.2123 10.3859 41.1949 10.3055 41.2092 10.2275C41.2235 10.1495 41.2682 10.0803 41.3336 10.0352C41.3989 9.99012 41.4795 9.97281 41.5577 9.98704L43.5131 10.3526C43.5879 10.3648 43.6553 10.4048 43.7016 10.4646C43.7479 10.5244 43.7696 10.5995 43.7625 10.6747C43.7555 10.7499 43.72 10.8197 43.6634 10.8698C43.6067 10.92 43.5331 10.9467 43.4574 10.9448V10.9369Z" fill="white"/>
<path d="M32.764 15.7419H32.7083C32.6308 15.7274 32.5622 15.6829 32.5174 15.6182C32.4727 15.5534 32.4554 15.4736 32.4693 15.3962L33.3057 10.9411C33.414 10.3816 33.7141 9.87727 34.1546 9.51465C34.595 9.15203 35.1482 8.9538 35.7192 8.95398C35.8716 8.95494 36.0235 8.96957 36.1732 8.99769L40.2275 9.75673C40.2662 9.76341 40.303 9.77775 40.336 9.79884C40.3691 9.81993 40.3975 9.84737 40.4198 9.87957C40.442 9.91176 40.4576 9.94806 40.4657 9.98634C40.4737 10.0246 40.474 10.0641 40.4665 10.1025C40.452 10.1798 40.4075 10.2483 40.3426 10.293C40.2777 10.3377 40.1976 10.3549 40.12 10.341L36.0617 9.58189C35.5775 9.49242 35.0775 9.59823 34.6714 9.87612C34.2652 10.154 33.986 10.5813 33.8951 11.0643L33.0587 15.5233C33.0404 15.587 33.0016 15.6428 32.9484 15.6823C32.8951 15.7218 32.8304 15.7428 32.764 15.7419Z" fill="white"/>
<path d="M32.2265 18.6071H32.1707C32.0929 18.5917 32.0242 18.5464 31.9795 18.481C31.9348 18.4156 31.9177 18.3353 31.9318 18.2574L32.1587 17.0651C32.1785 16.9931 32.2246 16.9311 32.288 16.8913C32.3513 16.8516 32.4273 16.837 32.5009 16.8505C32.5745 16.864 32.6403 16.9045 32.6854 16.9641C32.7304 17.0238 32.7514 17.0981 32.7442 17.1724L32.5212 18.3647C32.5075 18.4327 32.4707 18.494 32.417 18.5382C32.3633 18.5823 32.2961 18.6066 32.2265 18.6071Z" fill="white"/>
<path d="M50.5466 29.3651C50.5202 29.369 50.4933 29.369 50.4669 29.3651L48.5074 28.8127C48.4357 28.7875 48.3762 28.7359 48.3413 28.6685C48.3063 28.6011 48.2985 28.5229 48.3193 28.4498C48.3401 28.3768 48.3881 28.3145 48.4534 28.2756C48.5187 28.2367 48.5964 28.224 48.6707 28.2404L50.6262 28.7928C50.6641 28.8029 50.6996 28.8204 50.7306 28.8444C50.7616 28.8683 50.7874 28.8982 50.8067 28.9322C50.826 28.9663 50.8383 29.0038 50.8429 29.0426C50.8474 29.0815 50.8442 29.1208 50.8333 29.1584C50.8138 29.2189 50.7754 29.2715 50.7239 29.3087C50.6723 29.3458 50.6102 29.3656 50.5466 29.3651Z" fill="white"/>
<path d="M40.8688 32.7751C40.8424 32.7789 40.8156 32.7789 40.7892 32.7751C40.7513 32.765 40.7159 32.7475 40.6849 32.7235C40.6539 32.6996 40.6279 32.6697 40.6086 32.6357C40.5894 32.6016 40.5771 32.5641 40.5726 32.5252C40.568 32.4864 40.5712 32.447 40.5821 32.4094L41.7051 28.4352C41.8279 28.002 42.0886 27.6203 42.4478 27.3479C42.807 27.0755 43.2453 26.927 43.6965 26.925C43.8864 26.9255 44.0755 26.9522 44.2581 27.0045L47.4442 27.9027C47.484 27.9114 47.5216 27.9282 47.5547 27.952C47.5877 27.9758 47.6155 28.006 47.6364 28.041C47.6573 28.0759 47.6708 28.1147 47.6761 28.155C47.6814 28.1953 47.6784 28.2363 47.6673 28.2754C47.6561 28.3145 47.6371 28.351 47.6113 28.3824C47.5855 28.4139 47.5535 28.4398 47.5173 28.4585C47.4811 28.4772 47.4415 28.4883 47.4009 28.4912C47.3602 28.494 47.3193 28.4885 47.2809 28.475L44.0947 27.5768C43.965 27.5409 43.8311 27.5222 43.6965 27.5212C43.3749 27.5223 43.0625 27.628 42.8066 27.8224C42.5507 28.0168 42.3654 28.2891 42.2787 28.5982L41.1516 32.5724C41.1321 32.6318 41.0942 32.6834 41.0434 32.7199C40.9925 32.7563 40.9314 32.7756 40.8688 32.7751Z" fill="white"/>
<path d="M40.1998 35.1599H40.1201C40.0821 35.1494 40.0466 35.1314 40.0156 35.1071C39.9845 35.0828 39.9586 35.0526 39.9393 35.0182C39.9201 34.9839 39.9079 34.946 39.9033 34.9069C39.8988 34.8678 39.9021 34.8282 39.913 34.7903L40.2476 33.5981C40.2577 33.5603 40.2753 33.5249 40.2993 33.494C40.3233 33.4631 40.3532 33.4372 40.3873 33.418C40.4214 33.3987 40.459 33.3864 40.4979 33.3819C40.5369 33.3773 40.5763 33.3806 40.6139 33.3914C40.6901 33.4136 40.7546 33.4648 40.7933 33.5339C40.8321 33.6031 40.842 33.6846 40.821 33.761L40.4865 34.9533C40.4676 35.014 40.4294 35.067 40.3776 35.1043C40.3259 35.1416 40.2636 35.1611 40.1998 35.1599Z" fill="white"/>
</g>
<defs>
<clipPath id="clip0_339_14160">
<rect width="46.0714" height="42.3214" fill="white" transform="translate(6.96436 8.03577)"/>
</clipPath>
</defs>
</svg>
