<svg width="60" height="60" viewBox="0 0 60 60" fill="none" xmlns="http://www.w3.org/2000/svg">
<circle cx="30" cy="30" r="30" fill="white"/>
<circle cx="29.9999" cy="30" r="27.3214" fill="#E0E8F3"/>
<path d="M35.26 9.64287L12.3215 18.0719L24.1784 50.3387L47.1169 41.9097L35.26 9.64287Z" fill="#D1CE93"/>
<path d="M40.3869 19.3432L44.3515 45.6559L19.3422 49.4032L14.0742 14.2653L34.6845 11.1697" fill="#F8F9DC"/>
<path opacity="0.2" d="M38.8657 31.1014C37.5351 32.6221 36.8291 34.2514 37.0463 35.1203C37.0192 35.1475 36.9649 35.2018 36.9377 35.2289C36.5032 35.7177 36.3132 36.2608 36.5032 36.4237C36.6933 36.5867 37.2093 36.3423 37.6166 35.8535C37.6437 35.7992 37.6709 35.772 37.7252 35.7177C38.6213 35.8263 40.1419 34.9031 41.4454 33.3824L42.3143 32.3777L41.6354 27.8972L38.8657 31.1014Z" fill="#3C2415"/>
<path d="M20.51 19.968L18.745 20.2395C18.5006 20.2667 18.2834 20.1038 18.2562 19.8865L17.9847 18.0943C17.9575 17.85 18.1204 17.6327 18.3377 17.6056L20.1027 17.334C20.3471 17.3069 20.5643 17.4698 20.5915 17.687L20.863 19.4521C20.9173 19.7236 20.7544 19.9408 20.51 19.968Z" fill="#3FB0BC"/>
<path d="M36.4771 17.5788L22.3025 19.724C22.1395 19.7512 21.9766 19.6426 21.9494 19.4525C21.9223 19.2896 22.0309 19.1266 22.221 19.0995L36.3956 16.9814C36.5586 16.9543 36.7215 17.0629 36.7487 17.253C36.7758 17.3887 36.64 17.5517 36.4771 17.5788Z" fill="#669E88"/>
<path d="M21.2429 24.9384L19.4779 25.21C19.2335 25.2371 19.0163 25.0742 18.9891 24.8569L18.7176 23.0919C18.6904 22.8475 18.8533 22.6303 19.0706 22.6031L20.8356 22.3316C21.08 22.3044 21.2972 22.4673 21.3244 22.6846L21.5959 24.4496C21.6503 24.6669 21.4873 24.8841 21.2429 24.9384Z" fill="#3FB0BC"/>
<path d="M37.2369 22.5209L23.0622 24.6389C22.8993 24.6661 22.7364 24.5575 22.7092 24.3674C22.6821 24.2045 22.7907 24.0416 22.9808 24.0144L37.1554 21.8963C37.3183 21.8692 37.4813 21.9778 37.5084 22.1679C37.5084 22.3308 37.3998 22.4937 37.2369 22.5209Z" fill="#669E88"/>
<path d="M22.0032 29.8803L20.2381 30.1519C19.9937 30.179 19.7765 30.0161 19.7494 29.7988L19.4778 28.0338C19.4507 27.7894 19.6136 27.5722 19.8308 27.545L21.5959 27.2735C21.8403 27.2463 22.0575 27.4092 22.0846 27.6265L22.3562 29.3915C22.3833 29.6088 22.2204 29.826 22.0032 29.8803Z" fill="#3FB0BC"/>
<path d="M37.9703 27.4628L23.7956 29.5808C23.6327 29.608 23.4698 29.4994 23.4426 29.3093C23.4155 29.1464 23.5241 28.9834 23.7142 28.9563L37.8888 26.8382C38.0517 26.8111 38.2147 26.9197 38.2418 27.1098C38.269 27.2999 38.1332 27.4356 37.9703 27.4628Z" fill="#669E88"/>
<path d="M22.7368 34.8224L20.9718 35.094C20.7274 35.1211 20.5102 34.9582 20.483 34.741L20.2115 32.9759C20.1843 32.7315 20.3472 32.5143 20.5645 32.4872L22.3295 32.2156C22.5739 32.1885 22.7911 32.3514 22.8183 32.5686L23.0898 34.3337C23.1441 34.5509 22.9812 34.7681 22.7368 34.8224Z" fill="#3FB0BC"/>
<path d="M38.7039 32.4049L24.5293 34.523C24.3663 34.5501 24.2034 34.4415 24.1762 34.2514C24.1491 34.0885 24.2577 33.9256 24.4478 33.8984L38.6224 31.7804C38.7854 31.7532 38.9483 31.8618 38.9755 32.0519C39.0026 32.242 38.894 32.4049 38.7039 32.4049Z" fill="#669E88"/>
<path d="M23.4692 39.7636L21.7042 40.0351C21.4598 40.0623 21.2426 39.8994 21.2154 39.6821L20.9439 37.9171C20.9167 37.6727 21.0797 37.4555 21.2969 37.4283L23.0619 37.1568C23.3063 37.1296 23.5236 37.2925 23.5507 37.5098L23.8223 39.2748C23.8766 39.4921 23.7136 39.7364 23.4692 39.7636Z" fill="#3FB0BC"/>
<path d="M39.4632 37.3737L25.2885 39.4917C25.1256 39.5189 24.9627 39.4103 24.9355 39.2202C24.9084 39.0573 25.017 38.8943 25.2071 38.8672L39.3817 36.7491C39.5447 36.722 39.7076 36.8306 39.7347 37.0207C39.7347 37.1836 39.6261 37.3465 39.4632 37.3737Z" fill="#669E88"/>
<path d="M24.2307 44.7065L22.4657 44.978C22.2213 45.0052 22.0041 44.8422 21.9769 44.625L21.7054 42.86C21.6782 42.6156 21.8411 42.3983 22.0584 42.3712L23.8234 42.0996C24.0678 42.0725 24.285 42.2354 24.3122 42.4527L24.5837 44.2177C24.6109 44.4621 24.448 44.6793 24.2307 44.7065Z" fill="#3FB0BC"/>
<path d="M40.1974 42.3166L25.9956 44.4346C25.8326 44.4618 25.6697 44.3531 25.6426 44.1631C25.6154 44.0001 25.724 43.8372 25.9141 43.81L40.0888 41.692C40.2517 41.6648 40.4146 41.7735 40.4418 41.9635C40.4961 42.1265 40.3603 42.2894 40.1974 42.3166Z" fill="#669E88"/>
<path d="M34.6845 11.1699L32.5664 15.053L40.3869 19.3434" fill="#EAE3B9"/>
<path d="M37.4758 35.6218C37.7834 35.055 37.8512 34.497 37.6271 34.3754C37.403 34.2537 36.972 34.6146 36.6644 35.1814C36.3568 35.7482 36.2891 36.3062 36.5131 36.4278C36.7372 36.5494 37.1682 36.1886 37.4758 35.6218Z" fill="white"/>
<path d="M40.6824 32.3761C41.8341 30.254 42.0946 28.1684 41.2642 27.7177C40.4338 27.267 38.827 28.622 37.6752 30.7441C36.5235 32.8662 36.263 34.9519 37.0934 35.4026C37.9238 35.8532 39.5306 34.4983 40.6824 32.3761Z" fill="#D87036"/>
<path d="M40.6853 32.378L37.644 30.7215L44.4598 18.149C44.9215 17.3072 45.9533 17.0085 46.7951 17.443C47.6369 17.9046 47.9356 18.9365 47.5011 19.7783L40.6853 32.378Z" fill="#FBB03B"/>
<path d="M48.1226 20.6481L47.6453 20.389L44.8604 25.5203L45.3378 25.7793L48.1226 20.6481Z" fill="#D87036"/>
<path d="M47.6302 20.3947L47.2722 20.2004L46.5728 21.4892L46.9308 21.6835L47.6302 20.3947Z" fill="#D87036"/>
<path d="M40.6821 32.3768C40.7894 32.1791 40.2033 31.6535 39.3729 31.2028C38.5425 30.7521 37.7823 30.5471 37.675 30.7448C37.5677 30.9425 38.1539 31.4681 38.9843 31.9188C39.8147 32.3695 40.5748 32.5745 40.6821 32.3768Z" fill="#D87036"/>
<path d="M42.3962 25.6164C41.5544 25.1547 40.7941 24.9647 40.6855 25.1547L40.3596 25.7521C40.4682 25.5621 41.2286 25.7521 42.0704 26.2138C42.9121 26.6754 43.5096 27.1913 43.3738 27.4086L43.6996 26.8112C43.8082 26.5939 43.2108 26.078 42.3962 25.6164Z" fill="#D87036"/>
<path d="M45.9807 19.0185C45.1389 18.5568 44.3786 18.3668 44.27 18.5568L43.564 19.8603C43.6726 19.6702 44.4329 19.8603 45.2747 20.3219C46.1165 20.7835 46.7139 21.2994 46.5781 21.5167L47.2841 20.2133C47.3927 19.996 46.8225 19.4529 45.9807 19.0185Z" fill="#D87036"/>
<path d="M43.7537 21.7595L45.4372 18.6639C45.5187 18.5009 45.6545 18.3923 45.8174 18.3652C45.9803 18.3109 46.1433 18.338 46.3062 18.4195" stroke="white" stroke-miterlimit="10" stroke-linecap="round" stroke-linejoin="round"/>
<path d="M42.7754 23.5529L43.2913 22.6296" stroke="white" stroke-miterlimit="10" stroke-linecap="round" stroke-linejoin="round"/>
<path d="M19.1514 40.7136L19.6402 44.1351" stroke="white" stroke-miterlimit="10" stroke-linecap="round" stroke-linejoin="round"/>
<path d="M17.3865 29.0375L18.8528 38.8131" stroke="white" stroke-miterlimit="10" stroke-linecap="round" stroke-linejoin="round"/>
<path d="M24.3927 13.8308L15.2959 15.1885L17.0881 27.0008" stroke="white" stroke-miterlimit="10" stroke-linecap="round" stroke-linejoin="round"/>
<path d="M29.1453 13.0978L26.457 13.5051" stroke="white" stroke-miterlimit="10" stroke-linecap="round" stroke-linejoin="round"/>
<path d="M32.5124 12.609L31.0732 12.8262" stroke="white" stroke-miterlimit="10" stroke-linecap="round" stroke-linejoin="round"/>
</svg>
