<svg width="60" height="60" viewBox="0 0 60 60" fill="none" xmlns="http://www.w3.org/2000/svg">
<circle cx="30" cy="30" r="30" fill="white"/>
<circle cx="30" cy="30" r="27.3214" fill="#E0E8F3"/>
<path d="M39.9423 13.7717L16.5928 16.5022L19.9626 45.3184L43.3121 42.5879L39.9423 13.7717Z" fill="#D1CE93"/>
<path d="M45.3728 40.0671L22.8529 46.8132L16.8842 26.8903L17.7489 18.057L37.0493 12.2742L45.3728 40.0671Z" fill="#F8F9DC"/>
<path opacity="0.2" d="M20.9037 21.4815L16.8842 26.8896L17.7489 18.0563L20.9037 21.4815Z" fill="#3C2415"/>
<path d="M20.7234 19.6252L16.8842 26.8896L17.7489 18.0563L20.7234 19.6252Z" fill="#EAE3B9"/>
<path fill-rule="evenodd" clip-rule="evenodd" d="M35.2854 20.4864C35.3455 20.6869 35.2316 20.898 35.0312 20.9581L21.0122 25.1578C20.8118 25.2179 20.6006 25.1041 20.5406 24.9036C20.4805 24.7032 20.5943 24.4921 20.7948 24.432L34.8138 20.2322C35.0142 20.1722 35.2254 20.286 35.2854 20.4864Z" fill="#74A592"/>
<path fill-rule="evenodd" clip-rule="evenodd" d="M35.8066 22.2297C35.8667 22.4301 35.7529 22.6413 35.5525 22.7013L21.5335 26.9011C21.333 26.9612 21.1219 26.8474 21.0618 26.6469C21.0018 26.4465 21.1156 26.2353 21.316 26.1753L35.335 21.9755C35.5354 21.9155 35.7466 22.0293 35.8066 22.2297Z" fill="#74A592"/>
<path fill-rule="evenodd" clip-rule="evenodd" d="M27.61 26.5841C27.67 26.7845 27.5562 26.9957 27.3558 27.0557L23.801 28.1205C23.6006 28.1805 23.3894 28.0667 23.3294 27.8662C23.2693 27.6658 23.3832 27.4546 23.5836 27.3946L27.1384 26.3299C27.3388 26.2698 27.5499 26.3837 27.61 26.5841Z" fill="#74A592"/>
<path fill-rule="evenodd" clip-rule="evenodd" d="M28.1339 28.3283C28.1939 28.5288 28.0801 28.7399 27.8796 28.7999L24.3221 29.8646C24.1216 29.9246 23.9105 29.8107 23.8505 29.6103C23.7905 29.4098 23.9044 29.1987 24.1048 29.1387L27.6624 28.074C27.8628 28.014 28.0739 28.1279 28.1339 28.3283Z" fill="#74A592"/>
<path opacity="0.5" fill-rule="evenodd" clip-rule="evenodd" d="M22.1655 28.3679C22.2487 28.3679 22.3162 28.3005 22.3162 28.2172C22.3162 28.134 22.2487 28.0665 22.1655 28.0665C22.0823 28.0665 22.0148 28.134 22.0148 28.2172C22.0148 28.3005 22.0823 28.3679 22.1655 28.3679ZM21.5585 28.2172C21.5585 27.882 21.8302 27.6102 22.1655 27.6102C22.5007 27.6102 22.7725 27.882 22.7725 28.2172C22.7725 28.5525 22.5007 28.8243 22.1655 28.8243C21.8302 28.8243 21.5585 28.5525 21.5585 28.2172Z" fill="#74A592"/>
<path fill-rule="evenodd" clip-rule="evenodd" d="M22.6898 30.1112C22.773 30.1112 22.8405 30.0438 22.8405 29.9605C22.8405 29.8773 22.773 29.8098 22.6898 29.8098C22.6065 29.8098 22.5391 29.8773 22.5391 29.9605C22.5391 30.0438 22.6065 30.1112 22.6898 30.1112ZM22.0828 29.9605C22.0828 29.6253 22.3545 29.3535 22.6898 29.3535C23.025 29.3535 23.2968 29.6253 23.2968 29.9605C23.2968 30.2958 23.025 30.5675 22.6898 30.5675C22.3545 30.5675 22.0828 30.2958 22.0828 29.9605Z" fill="#74A592"/>
<path fill-rule="evenodd" clip-rule="evenodd" d="M37.7667 28.7669C37.8268 28.9674 37.713 29.1785 37.5125 29.2386L23.4935 33.4384C23.2931 33.4984 23.0819 33.3846 23.0219 33.1842C22.9618 32.9837 23.0757 32.7726 23.2761 32.7125L37.2951 28.5127C37.4955 28.4527 37.7067 28.5665 37.7667 28.7669Z" fill="#74A592"/>
<path fill-rule="evenodd" clip-rule="evenodd" d="M38.2882 30.5113C38.3483 30.7117 38.2345 30.9229 38.034 30.983L24.0178 35.1827C23.8174 35.2428 23.6062 35.129 23.5462 34.9286C23.4861 34.7281 23.5999 34.517 23.8004 34.4569L37.8165 30.2571C38.017 30.1971 38.2281 30.3109 38.2882 30.5113Z" fill="#74A592"/>
<path fill-rule="evenodd" clip-rule="evenodd" d="M30.0912 34.8681C30.1512 35.0686 30.0374 35.2797 29.837 35.3398L26.2822 36.4045C26.0818 36.4645 25.8706 36.3507 25.8106 36.1503C25.7505 35.9499 25.8644 35.7387 26.0648 35.6787L29.6196 34.6139C29.82 34.5539 30.0311 34.6677 30.0912 34.8681Z" fill="#74A592"/>
<path fill-rule="evenodd" clip-rule="evenodd" d="M30.6155 36.6124C30.6755 36.8128 30.5617 37.024 30.3613 37.084L26.8065 38.1488C26.6061 38.2088 26.3949 38.095 26.3349 37.8946C26.2748 37.6941 26.3887 37.483 26.5891 37.4229L30.1438 36.3582C30.3443 36.2982 30.5554 36.412 30.6155 36.6124Z" fill="#74A592"/>
<path opacity="0.5" fill-rule="evenodd" clip-rule="evenodd" d="M24.6473 36.6486C24.7305 36.6486 24.798 36.5811 24.798 36.4979C24.798 36.4147 24.7305 36.3472 24.6473 36.3472C24.5641 36.3472 24.4966 36.4147 24.4966 36.4979C24.4966 36.5811 24.5641 36.6486 24.6473 36.6486ZM24.0403 36.4979C24.0403 36.1626 24.312 35.8909 24.6473 35.8909C24.9825 35.8909 25.2543 36.1626 25.2543 36.4979C25.2543 36.8331 24.9825 37.1049 24.6473 37.1049C24.3121 37.1049 24.0403 36.8331 24.0403 36.4979Z" fill="#74A592"/>
<path opacity="0.5" fill-rule="evenodd" clip-rule="evenodd" d="M25.171 38.3928C25.2542 38.3928 25.3217 38.3254 25.3217 38.2421C25.3217 38.1589 25.2542 38.0914 25.171 38.0914C25.0877 38.0914 25.0203 38.1589 25.0203 38.2421C25.0203 38.3254 25.0878 38.3928 25.171 38.3928ZM24.564 38.2421C24.564 37.9069 24.8357 37.6351 25.171 37.6351C25.5062 37.6351 25.778 37.9069 25.778 38.2421C25.778 38.5774 25.5062 38.8492 25.171 38.8492C24.8357 38.8492 24.564 38.5774 24.564 38.2421Z" fill="#74A592"/>
<path fill-rule="evenodd" clip-rule="evenodd" d="M36.3306 23.973C36.3906 24.1734 36.2767 24.3845 36.0763 24.4445L32.5187 25.5093C32.3183 25.5693 32.1071 25.4554 32.0471 25.255C31.9871 25.0545 32.101 24.8434 32.3015 24.7834L35.859 23.7186C36.0595 23.6587 36.2706 23.7725 36.3306 23.973Z" fill="#74A592"/>
<path fill-rule="evenodd" clip-rule="evenodd" d="M36.8514 25.7171C36.9115 25.9176 36.7977 26.1287 36.5972 26.1888L33.0425 27.2535C32.842 27.3135 32.6309 27.1997 32.5708 26.9993C32.5108 26.7989 32.6246 26.5877 32.8251 26.5277L36.3798 25.4629C36.5802 25.4029 36.7914 25.5167 36.8514 25.7171Z" fill="#74A592"/>
<path opacity="0.5" fill-rule="evenodd" clip-rule="evenodd" d="M30.8863 25.7533C30.9695 25.7533 31.037 25.6858 31.037 25.6026C31.037 25.5194 30.9695 25.4519 30.8863 25.4519C30.8031 25.4519 30.7356 25.5194 30.7356 25.6026C30.7356 25.6858 30.8031 25.7533 30.8863 25.7533ZM30.2793 25.6026C30.2793 25.2674 30.5511 24.9956 30.8863 24.9956C31.2215 24.9956 31.4933 25.2674 31.4933 25.6026C31.4933 25.9379 31.2216 26.2096 30.8863 26.2096C30.5511 26.2096 30.2793 25.9379 30.2793 25.6026Z" fill="#74A592"/>
<path opacity="0.5" fill-rule="evenodd" clip-rule="evenodd" d="M31.4075 27.4977C31.4908 27.4977 31.5582 27.4302 31.5582 27.347C31.5582 27.2638 31.4908 27.1963 31.4075 27.1963C31.3243 27.1963 31.2569 27.2638 31.2569 27.347C31.2569 27.4302 31.3243 27.4977 31.4075 27.4977ZM30.8005 27.347C30.8005 27.0118 31.0723 26.74 31.4075 26.74C31.7428 26.74 32.0146 27.0118 32.0146 27.347C32.0146 27.6822 31.7428 27.954 31.4075 27.954C31.0723 27.954 30.8005 27.6822 30.8005 27.347Z" fill="#74A592"/>
<path fill-rule="evenodd" clip-rule="evenodd" d="M38.8124 32.2551C38.8724 32.4555 38.7585 32.6666 38.5581 32.7266L35.0005 33.7914C34.8001 33.8514 34.5889 33.7375 34.5289 33.5371C34.469 33.3366 34.5828 33.1255 34.7833 33.0655L38.3408 32.0007C38.5413 31.9408 38.7524 32.0546 38.8124 32.2551Z" fill="#74A592"/>
<path fill-rule="evenodd" clip-rule="evenodd" d="M39.3332 33.9978C39.3933 34.1982 39.2795 34.4094 39.079 34.4694L35.5243 35.5342C35.3238 35.5942 35.1127 35.4804 35.0527 35.2799C34.9926 35.0795 35.1064 34.8683 35.3069 34.8083L38.8616 33.7436C39.0621 33.6835 39.2732 33.7974 39.3332 33.9978Z" fill="#74A592"/>
<path fill-rule="evenodd" clip-rule="evenodd" d="M33.3681 34.0375C33.4513 34.0375 33.5188 33.97 33.5188 33.8868C33.5188 33.8036 33.4514 33.7361 33.3681 33.7361C33.2849 33.7361 33.2174 33.8036 33.2174 33.8868C33.2174 33.97 33.2849 34.0375 33.3681 34.0375ZM32.7611 33.8868C32.7611 33.5516 33.0329 33.2798 33.3681 33.2798C33.7034 33.2798 33.9751 33.5515 33.9751 33.8868C33.9751 34.222 33.7034 34.4938 33.3681 34.4938C33.0329 34.4938 32.7611 34.222 32.7611 33.8868Z" fill="#74A592"/>
<path opacity="0.5" fill-rule="evenodd" clip-rule="evenodd" d="M33.8887 35.7818C33.972 35.7818 34.0394 35.7143 34.0394 35.6311C34.0394 35.5478 33.972 35.4804 33.8887 35.4804C33.8055 35.4804 33.7381 35.5478 33.7381 35.6311C33.7381 35.7143 33.8055 35.7818 33.8887 35.7818ZM33.2817 35.6311C33.2817 35.2958 33.5535 35.024 33.8887 35.024C34.224 35.024 34.4958 35.2958 34.4958 35.6311C34.4958 35.9663 34.224 36.2381 33.8887 36.2381C33.5535 36.2381 33.2817 35.9663 33.2817 35.6311Z" fill="#74A592"/>
<path d="M16.0787 50.3872C19.9289 50.3872 23.0501 47.2659 23.0501 43.4157C23.0501 39.5654 19.9289 36.4442 16.0787 36.4442C12.2284 36.4442 9.10718 39.5654 9.10718 43.4157C9.10718 47.2659 12.2284 50.3872 16.0787 50.3872Z" fill="#E54C6E"/>
<path d="M19.1237 40.6791C18.9753 40.2872 18.7364 39.9616 18.407 39.7024C18.0355 39.4046 17.6181 39.1961 17.155 39.0769C16.6786 38.9395 16.1877 38.8963 15.6848 38.9314C15.2 38.9533 14.7321 39.074 14.2835 39.278L14.2654 39.2912C13.853 39.4687 13.6529 39.9355 13.8147 40.3455C13.869 40.5143 14.0113 40.6324 14.1633 40.6879L14.179 40.6903C14.3671 40.7192 14.5758 40.7191 14.7627 40.6515C15.1004 40.5428 15.4513 40.4523 15.8155 40.3798C16.0965 40.3267 16.3811 40.3543 16.6428 40.4266C16.907 40.4832 17.141 40.6315 17.3159 40.8509C17.4487 41.0318 17.4934 41.2633 17.4126 41.4756C17.3632 41.6927 17.2379 41.8821 17.086 42.0353C16.8617 42.2416 16.6242 42.4298 16.3734 42.5999C16.0165 42.834 15.6861 43.1043 15.3847 43.395C15.1122 43.7063 14.9133 44.0609 14.8194 44.4638C14.7639 44.6157 14.7688 44.793 14.8412 44.9486C14.9004 45.086 15.027 45.2018 15.1838 45.2258C15.3225 45.2632 15.4504 45.2668 15.5879 45.2076C15.7096 45.1461 15.8206 45.0508 15.8736 44.9145C15.9772 44.6576 16.1544 44.444 16.3582 44.2667C16.6657 44.0411 16.9864 43.8335 17.3204 43.6441C17.7401 43.4196 18.1331 43.159 18.5021 42.8465C18.8011 42.5714 19.0338 42.2059 19.1253 41.8188C19.2615 41.4545 19.2457 41.0348 19.1237 40.6791Z" fill="white"/>
<path d="M15.6843 46.25C15.4044 45.7737 14.7893 45.599 14.2997 45.8609C13.8752 46.1167 13.6836 46.6329 13.8514 47.1081L13.8201 47.1033L13.9106 47.2455C14.1905 47.7218 14.79 47.8941 15.2795 47.6322C15.5074 47.5067 15.6871 47.2775 15.7593 47.0158C15.8449 46.7722 15.8074 46.4936 15.6843 46.25Z" fill="white"/>
<path fill-rule="evenodd" clip-rule="evenodd" d="M16.3602 37.2892C16.3605 37.4448 16.2345 37.5711 16.0789 37.5713C14.8516 37.5729 13.6559 37.9601 12.6605 38.6781C11.6652 39.3962 10.9206 40.4088 10.532 41.573C10.4827 41.7205 10.3231 41.8002 10.1756 41.7509C10.028 41.7017 9.94834 41.5421 9.9976 41.3946C10.4236 40.1184 11.2398 39.0084 12.3309 38.2213C13.422 37.4341 14.7328 37.0097 16.0782 37.0079C16.2338 37.0077 16.36 37.1337 16.3602 37.2892Z" fill="white"/>
<path fill-rule="evenodd" clip-rule="evenodd" d="M10.0945 42.0746C10.2477 42.1018 10.3498 42.248 10.3226 42.4012C10.2631 42.7362 10.2335 43.0759 10.234 43.4162C10.2343 43.5718 10.1083 43.6981 9.95278 43.6983C9.79721 43.6986 9.67091 43.5727 9.67066 43.4171C9.67008 43.0435 9.70264 42.6705 9.76795 42.3027C9.79515 42.1495 9.94136 42.0474 10.0945 42.0746Z" fill="white"/>
<path d="M15.9661 31.4288C17.9885 31.4288 19.6279 29.7894 19.6279 27.767C19.6279 25.7447 17.9885 24.1052 15.9661 24.1052C13.9438 24.1052 12.3043 25.7447 12.3043 27.767C12.3043 29.7894 13.9438 31.4288 15.9661 31.4288Z" fill="#F7A139"/>
<path d="M16.7381 25.4729C16.8884 25.4729 17.0104 25.5161 17.1043 25.6025C17.202 25.6851 17.2508 25.7921 17.2508 25.9236V29.0445C17.2508 29.1873 17.2057 29.2999 17.1156 29.3826C17.0254 29.4652 16.9053 29.5065 16.755 29.5065C16.6161 29.5065 16.5015 29.4708 16.4114 29.3995C16.325 29.3243 16.2762 29.2229 16.2649 29.0953C16.1861 29.2267 16.0696 29.33 15.9156 29.4051C15.7654 29.4802 15.5983 29.5178 15.4143 29.5178C15.1777 29.5178 14.9655 29.4577 14.7777 29.3375C14.5936 29.2136 14.4491 29.0408 14.3439 28.8192C14.2387 28.5976 14.1862 28.3441 14.1862 28.0587C14.1862 27.7733 14.2369 27.5235 14.3383 27.3094C14.4434 27.0916 14.588 26.9245 14.772 26.808C14.9598 26.6916 15.1739 26.6334 15.4143 26.6334C15.5908 26.6334 15.7523 26.6691 15.8987 26.7404C16.049 26.8118 16.1654 26.9076 16.248 27.0278V25.9067C16.248 25.7752 16.2912 25.6701 16.3776 25.5912C16.4677 25.5123 16.5879 25.4729 16.7381 25.4729ZM15.7185 28.7685C15.895 28.7685 16.0302 28.7084 16.1241 28.5882C16.218 28.4681 16.2649 28.2953 16.2649 28.07C16.2649 27.8484 16.218 27.6794 16.1241 27.5629C16.0302 27.4428 15.895 27.3827 15.7185 27.3827C15.5457 27.3827 15.4124 27.4409 15.3185 27.5573C15.2246 27.6737 15.1777 27.8409 15.1777 28.0587C15.1777 28.284 15.2246 28.4587 15.3185 28.5826C15.4161 28.7065 15.5495 28.7685 15.7185 28.7685Z" fill="white"/>
<path fill-rule="evenodd" clip-rule="evenodd" d="M15.965 25.2323C15.8225 25.2319 15.6803 25.2446 15.5401 25.27C15.387 25.2978 15.2404 25.1963 15.2126 25.0432C15.1848 24.8902 15.2863 24.7435 15.4394 24.7157C15.6133 24.6842 15.7897 24.6685 15.9665 24.669C16.1221 24.6694 16.2478 24.7958 16.2474 24.9514C16.247 25.1069 16.1206 25.2327 15.965 25.2323Z" fill="white"/>
<path fill-rule="evenodd" clip-rule="evenodd" d="M14.9268 25.1332C14.998 25.2715 14.9437 25.4414 14.8054 25.5126C14.3915 25.7258 14.0443 26.049 13.802 26.4465C13.5596 26.8441 13.4314 27.3007 13.4314 27.7663C13.4314 27.9219 13.3053 28.048 13.1497 28.048C12.9942 28.048 12.868 27.9219 12.868 27.7663C12.868 27.1972 13.0247 26.6391 13.3209 26.1533C13.6172 25.6674 14.0415 25.2724 14.5474 25.0118C14.6857 24.9406 14.8555 24.9949 14.9268 25.1332Z" fill="white"/>
<path d="M24.7404 18.9977C26.5294 18.9977 27.9796 17.5474 27.9796 15.7584C27.9796 13.9694 26.5294 12.5192 24.7404 12.5192C22.9514 12.5192 21.5011 13.9694 21.5011 15.7584C21.5011 17.5474 22.9514 18.9977 24.7404 18.9977Z" fill="#8CC63F"/>
<path d="M24.8702 17.1811C24.4716 17.1811 24.156 17.0682 23.9235 16.8423C23.691 16.6164 23.5747 16.3091 23.5747 15.9204C23.5747 15.6647 23.6312 15.4388 23.7441 15.2428C23.8571 15.0468 24.0149 14.8956 24.2175 14.7893C24.4235 14.683 24.6576 14.6299 24.9201 14.6299C25.0596 14.6299 25.1991 14.6482 25.3386 14.6847C25.4782 14.7212 25.6011 14.7727 25.7074 14.8392C25.8103 14.9023 25.8618 14.9986 25.8618 15.1282C25.8618 15.2311 25.8369 15.3159 25.7871 15.3823C25.7406 15.4454 25.6791 15.477 25.6027 15.477C25.5529 15.477 25.5047 15.4703 25.4582 15.457C25.4117 15.4404 25.3602 15.4172 25.3038 15.3873C25.2373 15.3574 25.1808 15.3358 25.1343 15.3225C25.0878 15.3059 25.0363 15.2976 24.9799 15.2976C24.651 15.2976 24.4866 15.4986 24.4866 15.9005C24.4866 16.0998 24.5281 16.2526 24.6111 16.3589C24.6975 16.4619 24.8204 16.5134 24.9799 16.5134C25.0363 16.5134 25.0878 16.5068 25.1343 16.4935C25.1842 16.4769 25.239 16.4536 25.2988 16.4237C25.3652 16.3938 25.4184 16.3722 25.4582 16.3589C25.5014 16.3423 25.5479 16.334 25.5977 16.334C25.6741 16.334 25.7356 16.3672 25.7821 16.4337C25.8319 16.4968 25.8568 16.5798 25.8568 16.6828C25.8568 16.7459 25.8436 16.8041 25.817 16.8572C25.7904 16.907 25.7539 16.9452 25.7074 16.9718C25.4782 17.1113 25.1991 17.1811 24.8702 17.1811Z" fill="white"/>
<path fill-rule="evenodd" clip-rule="evenodd" d="M25.0217 13.3644C25.0217 13.52 24.8957 13.6462 24.7401 13.6462C24.3481 13.6464 23.9639 13.7556 23.6303 13.9614C23.2967 14.1673 23.0269 14.4618 22.8509 14.8121C22.7811 14.9511 22.6118 15.0072 22.4728 14.9373C22.3338 14.8675 22.2777 14.6982 22.3475 14.5592C22.5704 14.1156 22.912 13.7427 23.3345 13.482C23.7569 13.2213 24.2434 13.0831 24.7398 13.0829C24.8954 13.0828 25.0216 13.2088 25.0217 13.3644Z" fill="white"/>
<path fill-rule="evenodd" clip-rule="evenodd" d="M22.3605 15.241C22.5158 15.2495 22.6349 15.3822 22.6264 15.5375C22.6227 15.6062 22.6227 15.675 22.6264 15.7436C22.6349 15.899 22.5158 16.0317 22.3605 16.0402C22.2051 16.0486 22.0724 15.9295 22.0639 15.7742C22.0591 15.6852 22.0591 15.596 22.0639 15.507C22.0724 15.3517 22.2051 15.2326 22.3605 15.241Z" fill="white"/>
<path d="M45.6242 36.5151C47.6465 36.5151 49.286 34.8757 49.286 32.8533C49.286 30.831 47.6465 29.1915 45.6242 29.1915C43.6018 29.1915 41.9624 30.831 41.9624 32.8533C41.9624 34.8757 43.6018 36.5151 45.6242 36.5151Z" fill="#A24ABC"/>
<path d="M46.0637 31.7211C46.3041 31.7211 46.5163 31.7793 46.7003 31.8957C46.8843 32.0121 47.027 32.1792 47.1284 32.3971C47.2336 32.6111 47.2862 32.8609 47.2862 33.1463C47.2862 33.4318 47.2336 33.6853 47.1284 33.9069C47.027 34.1284 46.8824 34.3012 46.6946 34.4251C46.5106 34.5453 46.3003 34.6054 46.0637 34.6054C45.8797 34.6054 45.7107 34.5679 45.5567 34.4927C45.4065 34.4176 45.2919 34.3143 45.213 34.1829C45.2018 34.3106 45.1511 34.412 45.0609 34.4871C44.9746 34.5585 44.86 34.5941 44.7173 34.5941C44.5671 34.5941 44.4469 34.5528 44.3567 34.4702C44.2704 34.3838 44.2272 34.2712 44.2272 34.1322V31.0112C44.2272 30.8798 44.2741 30.7727 44.368 30.6901C44.4619 30.6037 44.5858 30.5605 44.7398 30.5605C44.8863 30.5605 45.0046 30.6 45.0947 30.6789C45.1849 30.7577 45.2299 30.8629 45.2299 30.9943V32.1154C45.3126 31.9952 45.4271 31.8994 45.5736 31.8281C45.7238 31.7567 45.8872 31.7211 46.0637 31.7211ZM45.7539 33.8562C45.9266 33.8562 46.0599 33.7961 46.1538 33.6759C46.2477 33.5519 46.2947 33.3754 46.2947 33.1463C46.2947 32.9285 46.2477 32.7614 46.1538 32.6449C46.0637 32.5285 45.9322 32.4703 45.7595 32.4703C45.583 32.4703 45.4478 32.5304 45.3539 32.6506C45.26 32.767 45.213 32.936 45.213 33.1576C45.213 33.3829 45.26 33.5557 45.3539 33.6759C45.4478 33.7961 45.5811 33.8562 45.7539 33.8562Z" fill="white"/>
<path fill-rule="evenodd" clip-rule="evenodd" d="M43.8313 30.6636C43.9413 30.7736 43.9413 30.952 43.8313 31.0619C43.3558 31.5372 43.0886 32.1819 43.0885 32.8542C43.0885 33.0098 42.9623 33.1359 42.8068 33.1359C42.6512 33.1358 42.5251 33.0097 42.5251 32.8541C42.5253 32.0324 42.8519 31.2445 43.433 30.6635C43.543 30.5535 43.7214 30.5536 43.8313 30.6636Z" fill="white"/>
<path d="M36.9292 21.4969H46.2593C47.5729 21.4969 48.6377 20.4321 48.6377 19.1186V13.0681C48.6377 11.7546 47.5729 10.6897 46.2593 10.6897L36.9292 10.6897C35.6156 10.6897 34.5508 11.7546 34.5508 13.0681V19.1186C34.5508 20.4321 35.6156 21.4969 36.9292 21.4969Z" fill="#6C96D3"/>
<path d="M39.4928 19.4786C40.0496 20.0362 40.3624 20.7919 40.3624 21.5799C40.3624 22.3679 40.0496 23.1237 39.4928 23.6812C40.6072 23.6806 41.6758 23.2377 42.4638 22.4497C43.2518 21.6617 43.6948 20.5931 43.6954 19.4786H39.4928Z" fill="#6C96D3"/>
<path fill-rule="evenodd" clip-rule="evenodd" d="M36.458 17.9978C36.458 17.7375 36.6689 17.5266 36.9292 17.5266H44.1289C44.3891 17.5266 44.6001 17.7375 44.6001 17.9978C44.6001 18.258 44.3891 18.4689 44.1289 18.4689H36.9292C36.6689 18.4689 36.458 18.258 36.458 17.9978Z" fill="white"/>
<path fill-rule="evenodd" clip-rule="evenodd" d="M36.458 16.0928C36.458 15.8326 36.6689 15.6217 36.9292 15.6217H46.2593C46.5195 15.6217 46.7305 15.8326 46.7305 16.0928C46.7305 16.3531 46.5195 16.564 46.2593 16.564H36.9292C36.6689 16.564 36.458 16.3531 36.458 16.0928Z" fill="white"/>
<path fill-rule="evenodd" clip-rule="evenodd" d="M36.458 14.1912C36.458 13.931 36.6689 13.7201 36.9292 13.7201H46.2593C46.5195 13.7201 46.7305 13.931 46.7305 14.1912C46.7305 14.4514 46.5195 14.6624 46.2593 14.6624H36.9292C36.6689 14.6624 36.458 14.4514 36.458 14.1912Z" fill="white"/>
<path fill-rule="evenodd" clip-rule="evenodd" d="M44.9269 11.3366C44.9269 11.2175 45.0234 11.121 45.1425 11.121H46.2595C46.3785 11.121 46.4751 11.2175 46.4751 11.3366C46.4751 11.4557 46.3785 11.5522 46.2595 11.5522H45.1425C45.0234 11.5522 44.9269 11.4557 44.9269 11.3366Z" fill="white"/>
<path fill-rule="evenodd" clip-rule="evenodd" d="M41.9103 11.3366C41.9103 11.2175 42.0068 11.121 42.1259 11.121H44.252C44.3711 11.121 44.4676 11.2175 44.4676 11.3366C44.4676 11.4557 44.3711 11.5522 44.252 11.5522H42.1259C42.0068 11.5522 41.9103 11.4557 41.9103 11.3366Z" fill="white"/>
<path fill-rule="evenodd" clip-rule="evenodd" d="M36.9231 11.5522C36.5227 11.5522 36.1388 11.7112 35.8558 11.9943C35.5727 12.2774 35.4137 12.6613 35.4137 13.0616V15.5413C35.4137 15.6604 35.3171 15.7569 35.198 15.7569C35.079 15.7569 34.9824 15.6604 34.9824 15.5413V13.0616C34.9824 12.5469 35.1869 12.0533 35.5508 11.6894C35.9148 11.3254 36.4084 11.121 36.9231 11.121H41.3607C41.4797 11.121 41.5763 11.2175 41.5763 11.3366C41.5763 11.4557 41.4797 11.5522 41.3607 11.5522H36.9231Z" fill="white"/>
<path fill-rule="evenodd" clip-rule="evenodd" d="M35.198 16.0928C35.3171 16.0928 35.4137 16.1893 35.4137 16.3084V16.7806C35.4137 16.8997 35.3171 16.9962 35.198 16.9962C35.079 16.9962 34.9824 16.8997 34.9824 16.7806V16.3084C34.9824 16.1893 35.079 16.0928 35.198 16.0928Z" fill="white"/>
<path d="M33.3679 48.3746C35.6624 48.3746 37.5226 46.5145 37.5226 44.2199C37.5226 41.9253 35.6624 40.0652 33.3679 40.0652C31.0733 40.0652 29.2131 41.9253 29.2131 44.2199C29.2131 46.5145 31.0733 48.3746 33.3679 48.3746Z" fill="#54A6EA"/>
<path d="M33.3185 42.745C33.8042 42.745 34.1622 42.8622 34.3922 43.0965C34.6266 43.3266 34.7438 43.6781 34.7438 44.1511V45.4868C34.7438 45.6487 34.6948 45.7766 34.5968 45.8703C34.503 45.9598 34.3709 46.0045 34.2005 46.0045C34.0514 46.0045 33.9278 45.9619 33.8298 45.8767C33.7361 45.7915 33.6849 45.6764 33.6764 45.5316C33.6168 45.685 33.5166 45.8043 33.376 45.8895C33.2354 45.9747 33.0671 46.0173 32.8711 46.0173C32.6538 46.0173 32.4578 45.9747 32.2831 45.8895C32.1084 45.8 31.97 45.6786 31.8677 45.5252C31.7697 45.3675 31.7207 45.1907 31.7207 44.9947C31.7207 44.7689 31.7782 44.5899 31.8933 44.4578C32.0126 44.3215 32.2 44.2235 32.4557 44.1638C32.7113 44.1042 33.0565 44.0744 33.4911 44.0744H33.6636V43.9977C33.6636 43.8485 33.6295 43.742 33.5614 43.6781C33.4932 43.6099 33.3782 43.5759 33.2162 43.5759C33.0416 43.5759 32.7859 43.6355 32.4493 43.7548C32.3513 43.7889 32.2682 43.8059 32.2 43.8059C32.0935 43.8059 32.0083 43.7676 31.9444 43.6909C31.8805 43.6142 31.8485 43.5141 31.8485 43.3905C31.8485 43.2968 31.8677 43.2201 31.906 43.1604C31.9444 43.1008 32.0062 43.0475 32.0914 43.0006C32.2405 42.9239 32.428 42.8622 32.6538 42.8153C32.8796 42.7684 33.1012 42.745 33.3185 42.745ZM33.1396 45.2567C33.2929 45.2567 33.4186 45.2035 33.5166 45.097C33.6146 44.9862 33.6636 44.8456 33.6636 44.6751V44.5985H33.5614C33.2887 44.5985 33.0948 44.624 32.9798 44.6751C32.8647 44.722 32.8072 44.803 32.8072 44.918C32.8072 45.016 32.837 45.097 32.8967 45.1609C32.9606 45.2248 33.0416 45.2567 33.1396 45.2567Z" fill="white"/>
<path fill-rule="evenodd" clip-rule="evenodd" d="M33.6492 40.9096C33.6493 41.0652 33.5232 41.1914 33.3676 41.1914C32.7603 41.1916 32.167 41.3743 31.6647 41.7157C31.1625 42.0571 30.7743 42.5416 30.5507 43.1063C30.4934 43.2509 30.3298 43.3217 30.1851 43.2645C30.0405 43.2072 29.9697 43.0435 30.0269 42.8989C30.2921 42.2292 30.7524 41.6547 31.348 41.2498C31.9437 40.8449 32.6472 40.6283 33.3675 40.6281C33.523 40.628 33.6492 40.7541 33.6492 40.9096Z" fill="white"/>
<path fill-rule="evenodd" clip-rule="evenodd" d="M30.1076 43.5572C30.2623 43.5738 30.3742 43.7126 30.3576 43.8673C30.3451 43.9842 30.339 44.1016 30.3395 44.2192C30.3401 44.3747 30.2146 44.5013 30.059 44.502C29.9034 44.5026 29.7768 44.377 29.7762 44.2215C29.7756 44.0831 29.7827 43.9448 29.7975 43.8072C29.8141 43.6525 29.9529 43.5406 30.1076 43.5572Z" fill="white"/>
</svg>
