<svg width="60" height="60" viewBox="0 0 60 60" fill="none" xmlns="http://www.w3.org/2000/svg">
<circle cx="30" cy="30" r="30" fill="white"/>
<circle cx="30" cy="30" r="27.3214" fill="#E0E8F3"/>
<path d="M48.5198 45.0774H11.7094C10.3319 45.0774 9.18396 43.9295 9.18396 42.552V20.282C9.18396 18.9045 10.3319 17.7566 11.7094 17.7566H48.4816C49.8591 17.7566 51.007 18.9045 51.007 20.282V42.552C51.007 43.9295 49.8974 45.0774 48.5198 45.0774Z" fill="#97E2FF"/>
<path fill-rule="evenodd" clip-rule="evenodd" d="M11.7092 18.903C10.9656 18.903 10.3316 19.537 10.3316 20.2806V42.5505C10.3316 43.294 10.9656 43.928 11.7092 43.928H48.5196C49.2405 43.928 49.8588 43.3169 49.8588 42.5505V20.2806C49.8588 19.537 49.2249 18.903 48.4813 18.903H11.7092ZM8.03577 20.2806C8.03577 18.2691 9.69765 16.6072 11.7092 16.6072H48.4813C50.4928 16.6072 52.1547 18.2691 52.1547 20.2806V42.5505C52.1547 44.5391 50.5538 46.2239 48.5196 46.2239H11.7092C9.69765 46.2239 8.03577 44.562 8.03577 42.5505V20.2806Z" fill="#364ED8"/>
<g opacity="0.5">
<mask id="mask0_316_954" style="mask-type:alpha" maskUnits="userSpaceOnUse" x="9" y="17" width="43" height="29">
<path d="M48.5198 45.0774H11.7094C10.3319 45.0774 9.18396 43.9295 9.18396 42.552V20.282C9.18396 18.9045 10.3319 17.7566 11.7094 17.7566H48.4816C49.8591 17.7566 51.007 18.9045 51.007 20.282V42.552C51.007 43.9295 49.8974 45.0774 48.5198 45.0774Z" fill="#97E2FF"/>
</mask>
<g mask="url(#mask0_316_954)">
<path opacity="0.5" d="M11.7098 43.1625C11.3654 43.1625 11.0975 42.8946 11.0975 42.5502V20.2803C11.0975 19.9359 11.3654 19.6681 11.7098 19.6681H48.4819C48.8263 19.6681 49.0942 19.9359 49.0942 20.2803V42.5502C49.0942 42.8946 48.8263 43.1625 48.4819 43.1625H11.7098Z" fill="white"/>
<path d="M63.8641 17.8706H50.7012L23.5717 44.9619H36.7346L63.8641 17.8706Z" fill="#97E2FF"/>
<path d="M48.7884 17.8706H42.3983L15.307 44.9619H21.6589L48.7884 17.8706Z" fill="#97E2FF"/>
<path d="M38.8009 17.8706H34.8214L7.7301 44.9619H11.6713L38.8009 17.8706Z" fill="#97E2FF"/>
<path d="M30.6886 17.871H29.2728L2.14331 44.9622H3.59736L30.6886 17.871Z" fill="#97E2FF"/>
</g>
</g>
<path opacity="0.5" d="M48.5198 45.0774H11.7094C10.3319 45.0774 9.18396 43.9295 9.18396 42.552V20.282C9.18396 18.9045 10.3319 17.7566 11.7094 17.7566H48.4816C49.8591 17.7566 51.007 18.9045 51.007 20.282V42.552C51.007 43.9295 49.8974 45.0774 48.5198 45.0774Z" fill="#97E2FF"/>
<path d="M29.2865 22.8913V27.922C29.2865 28.4122 28.8249 29.5001 27.3655 30.1407L28.4526 32.2856C28.4526 32.2856 29.1234 30.2607 30.1053 30.2607V22.8903L29.2865 22.8913Z" fill="#FFE8E0"/>
<g opacity="0.1">
<path opacity="0.1" d="M28.8013 29.0693C28.419 29.5405 27.9254 29.9092 27.3651 30.142L28.4523 32.2869C28.6433 31.7253 28.9258 31.199 29.2882 30.7292C29.0941 30.0216 28.8927 29.5822 28.8013 29.0693Z" fill="#3C2211"/>
</g>
<path d="M30.9227 22.8913V27.922C30.9227 28.4122 31.3843 29.5001 32.8437 30.1407L31.7565 32.2856C31.7565 32.2856 31.0858 30.2607 30.1039 30.2607V22.8903L30.9227 22.8913Z" fill="#FFE8E0"/>
<g opacity="0.1">
<path opacity="0.1" d="M31.4096 29.0693C31.7919 29.5405 32.2854 29.9092 32.8458 30.142L31.7586 32.2869C31.5676 31.7253 31.2851 31.199 30.9227 30.7292C31.116 30.0216 31.3177 29.5822 31.4096 29.0693Z" fill="#3C2211"/>
</g>
<path d="M21.6996 40.4448C23.095 40.7147 24.3568 39.0424 25.8127 39.0084C27.9937 38.9568 28.7096 38.4326 28.7295 37.729C28.7529 36.8877 28.9988 36.7838 28.9988 34.0736L21.6996 40.4448Z" fill="#D85D72"/>
<path d="M38.5083 40.4448C37.1129 40.7147 35.8511 39.0424 34.3952 39.0084C32.2142 38.9568 31.4983 38.4326 31.4784 37.729C31.455 36.8877 31.2091 36.7838 31.2091 34.0736L38.5083 40.4448Z" fill="#D85D72"/>
<path d="M27.1303 23.8008C23.8247 23.8008 20.5488 30.7094 20.5488 34.1788C20.5488 38.9882 21.0191 40.4894 21.9569 40.4894C22.8947 40.4894 23.494 38.9562 25.2849 38.5419C27.5036 38.0285 29 36.9341 29 34.0748C29 29.3622 28.0095 29.072 28.0095 27.5307C28.0085 26.5625 28.6042 23.8008 27.1303 23.8008Z" fill="#F48F8F"/>
<g opacity="0.1">
<path opacity="0.1" d="M25.0012 37.436C23.1034 37.7319 22.3619 39.2855 21.3842 39.2143C21.1849 39.2006 20.9988 39.1099 20.8651 38.9615C21.0988 40.0649 21.4626 40.4906 21.9579 40.4906C22.896 40.4906 23.495 38.9573 25.286 38.543C27.4229 38.0485 28.8857 37.0098 28.9909 34.3799C28.4308 36.3584 26.9647 37.1295 25.0012 37.436Z" fill="#3C2211"/>
</g>
<path d="M33.0781 23.7999C36.3837 23.7999 39.6596 30.7085 39.6596 34.178C39.6596 38.9873 39.1893 40.4886 38.2515 40.4886C37.3137 40.4886 36.7144 38.9554 34.9235 38.541C32.7048 38.0276 31.2085 36.9333 31.2085 34.074C31.2085 29.3613 32.1989 29.0711 32.1989 27.5299C32.201 26.5617 31.6042 23.7999 33.0781 23.7999Z" fill="#F48F8F"/>
<g opacity="0.1">
<path opacity="0.1" d="M35.2089 37.436C37.1066 37.7319 37.8481 39.2855 38.8258 39.2143C39.0251 39.2006 39.2113 39.1099 39.3449 38.9615C39.1112 40.0649 38.7474 40.4906 38.2521 40.4906C37.314 40.4906 36.715 38.9573 34.9241 38.543C32.7871 38.0485 31.3244 37.0098 31.2191 34.3799C31.7789 36.3584 33.2453 37.1295 35.2089 37.436Z" fill="#3C2211"/>
</g>
<path d="M30.1047 23.1692C30.557 23.1692 30.9236 23.0448 30.9236 22.8914C30.9236 22.7379 30.557 22.6135 30.1047 22.6135C29.6525 22.6135 29.2859 22.7379 29.2859 22.8914C29.2859 23.0448 29.6525 23.1692 30.1047 23.1692Z" fill="#E5CDBD"/>
<path d="M25.4258 26.0429C25.3993 26.0429 25.3732 26.0375 25.3489 26.027C25.3246 26.0164 25.3028 26.0011 25.2847 25.9818C25.2497 25.9443 25.2311 25.8944 25.2328 25.8432C25.2345 25.7919 25.2564 25.7435 25.2937 25.7083C25.504 25.5076 25.732 25.3263 25.9748 25.1665C26.0179 25.1389 26.0703 25.1294 26.1204 25.1402C26.1704 25.1511 26.2142 25.1813 26.2421 25.2243C26.2699 25.2675 26.2795 25.3199 26.2687 25.3701C26.2579 25.4204 26.2277 25.4642 26.1845 25.4921C25.9613 25.6388 25.7518 25.8053 25.5587 25.9898C25.5227 26.0237 25.4752 26.0427 25.4258 26.0429Z" fill="white"/>
<path d="M22.7879 30.1168C22.7619 30.1168 22.7361 30.1116 22.7121 30.1014C22.6886 30.0915 22.6674 30.0771 22.6495 30.059C22.6316 30.0408 22.6175 30.0194 22.6079 29.9958C22.5983 29.9722 22.5935 29.947 22.5936 29.9216C22.5938 29.8961 22.599 29.871 22.6089 29.8475C22.8539 29.2722 23.1314 28.7113 23.4401 28.1675C23.8166 27.4941 24.2572 26.8587 24.7558 26.27C24.7894 26.2312 24.8369 26.2073 24.888 26.2035C24.9392 26.1998 24.9897 26.2164 25.0285 26.2499C25.0674 26.2835 25.0913 26.3311 25.0951 26.3823C25.0988 26.4335 25.0821 26.4842 25.0487 26.5231C24.5663 27.0926 24.1401 27.7074 23.776 28.3589C23.4748 28.8899 23.2038 29.4374 22.9644 29.9989C22.9496 30.0336 22.9251 30.0633 22.8937 30.0842C22.8624 30.1052 22.8256 30.1165 22.7879 30.1168Z" fill="white"/>
<path d="M33.0046 29.5484C32.9838 29.5485 32.9632 29.5453 32.9434 29.5389C32.9193 29.5309 32.897 29.5182 32.8778 29.5016C32.8585 29.485 32.8428 29.4648 32.8314 29.4421C32.82 29.4193 32.8131 29.3946 32.8113 29.3693C32.8095 29.3439 32.8126 29.3185 32.8206 29.2943C33.0387 28.7315 33.1562 28.1347 33.1679 27.5312C33.1679 27.3042 33.1441 27.0357 33.1163 26.7253C33.0434 26.1331 33.0347 25.5348 33.0905 24.9408C33.0954 24.9159 33.1052 24.8921 33.1193 24.871C33.1334 24.8498 33.1515 24.8317 33.1727 24.8175C33.1938 24.8034 33.2175 24.7936 33.2425 24.7887C33.2674 24.7838 33.2931 24.7838 33.318 24.7888C33.3683 24.7988 33.4125 24.8283 33.441 24.8709C33.4695 24.9135 33.4799 24.9656 33.47 25.0159C33.4239 25.5707 33.4343 26.1288 33.5012 26.6814C33.5303 27.0112 33.5543 27.2869 33.5543 27.5312C33.5443 28.1763 33.4201 28.8146 33.1875 29.4164C33.1747 29.4548 33.1502 29.4883 33.1174 29.512C33.0845 29.5357 33.0451 29.5484 33.0046 29.5484Z" fill="white"/>
<path d="M32.5431 31.4311C32.5337 31.431 32.5243 31.4303 32.515 31.4287C32.4642 31.4213 32.4185 31.394 32.3878 31.3528C32.3572 31.3116 32.3442 31.26 32.3517 31.2092C32.3981 30.8916 32.4536 30.599 32.5206 30.3142C32.5325 30.2644 32.5635 30.2213 32.6071 30.1944C32.6506 30.1674 32.703 30.1587 32.7528 30.1703C32.8026 30.1821 32.8457 30.2132 32.8726 30.2567C32.8996 30.3002 32.9082 30.3526 32.8965 30.4025C32.832 30.6762 32.7784 30.9582 32.7337 31.2647C32.7272 31.3107 32.7044 31.3528 32.6694 31.3833C32.6344 31.4139 32.5896 31.4308 32.5431 31.4311Z" fill="white"/>
<path fill-rule="evenodd" clip-rule="evenodd" d="M11.7092 18.903C10.9656 18.903 10.3316 19.537 10.3316 20.2806V42.5505C10.3316 43.294 10.9656 43.928 11.7092 43.928H48.5196C49.2405 43.928 49.8588 43.3169 49.8588 42.5505V20.2806C49.8588 19.537 49.2249 18.903 48.4813 18.903H11.7092ZM8.03577 20.2806C8.03577 18.2691 9.69765 16.6072 11.7092 16.6072H48.4813C50.4928 16.6072 52.1547 18.2691 52.1547 20.2806V42.5505C52.1547 44.5391 50.5538 46.2239 48.5196 46.2239H11.7092C9.69765 46.2239 8.03577 44.562 8.03577 42.5505V20.2806Z" fill="#364ED8"/>
<path fill-rule="evenodd" clip-rule="evenodd" d="M22.6532 46.4161C22.6532 46.3104 22.7389 46.2247 22.8445 46.2247H27.0153C27.121 46.2247 27.2067 46.3104 27.2067 46.4161C27.2067 46.5217 27.121 46.6074 27.0153 46.6074H22.8445C22.7389 46.6074 22.6532 46.5217 22.6532 46.4161Z" fill="#E0E8F3"/>
<path fill-rule="evenodd" clip-rule="evenodd" d="M27.6646 46.4161C27.6646 46.3104 27.7502 46.2247 27.8559 46.2247H28.736C28.8416 46.2247 28.9273 46.3104 28.9273 46.4161C28.9273 46.5217 28.8416 46.6074 28.736 46.6074H27.8559C27.7502 46.6074 27.6646 46.5217 27.6646 46.4161Z" fill="#E0E8F3"/>
<path fill-rule="evenodd" clip-rule="evenodd" d="M16.1862 17.7553C16.1862 17.6496 16.2718 17.564 16.3775 17.564H17.4106C17.5163 17.564 17.6019 17.6496 17.6019 17.7553C17.6019 17.861 17.5163 17.9466 17.4106 17.9466H16.3775C16.2718 17.9466 16.1862 17.861 16.1862 17.7553Z" fill="white"/>
<path fill-rule="evenodd" clip-rule="evenodd" d="M11.7477 17.9466C10.4758 17.9466 9.41353 19.0089 9.41353 20.2807V29.9617C9.41353 30.0673 9.32787 30.153 9.22221 30.153C9.11654 30.153 9.03088 30.0673 9.03088 29.9617V20.2807C9.03088 18.7976 10.2645 17.564 11.7477 17.564H15.5741C15.6798 17.564 15.7654 17.6496 15.7654 17.7553C15.7654 17.861 15.6798 17.9466 15.5741 17.9466H11.7477Z" fill="white"/>
<path fill-rule="evenodd" clip-rule="evenodd" d="M9.22221 30.6895C9.32787 30.6895 9.41353 30.7751 9.41353 30.8808V32.22C9.41353 32.3257 9.32787 32.4114 9.22221 32.4114C9.11654 32.4114 9.03088 32.3257 9.03088 32.22V30.8808C9.03088 30.7751 9.11654 30.6895 9.22221 30.6895Z" fill="white"/>
<path d="M30.1146 36.7732C33.0731 36.7732 35.4714 34.3748 35.4714 31.4163C35.4714 28.4578 33.0731 26.0594 30.1146 26.0594C27.156 26.0594 24.7577 28.4578 24.7577 31.4163C24.7577 34.3748 27.156 36.7732 30.1146 36.7732Z" fill="#EA2853"/>
<path d="M32.3615 31.1005L28.7326 28.998C28.4734 28.854 28.1566 29.0268 28.1566 29.3149V33.4909C28.1566 33.7789 28.4734 33.9517 28.7326 33.8077L32.3615 31.7053C32.6207 31.5901 32.6207 31.2445 32.3615 31.1005Z" fill="white"/>
<path fill-rule="evenodd" clip-rule="evenodd" d="M30.1151 27.143C28.1573 27.143 26.4755 28.4669 25.9796 30.2853C25.9518 30.3872 25.8466 30.4473 25.7447 30.4195C25.6427 30.3917 25.5826 30.2865 25.6104 30.1846C26.1513 28.2013 27.9832 26.7604 30.1151 26.7604C30.2207 26.7604 30.3064 26.846 30.3064 26.9517C30.3064 27.0574 30.2207 27.143 30.1151 27.143Z" fill="white"/>
<path fill-rule="evenodd" clip-rule="evenodd" d="M25.6826 30.6512C25.7868 30.6686 25.8572 30.7671 25.8399 30.8714C25.8142 31.0254 25.8137 31.21 25.8137 31.4159C25.8137 31.5216 25.728 31.6072 25.6224 31.6072C25.5167 31.6072 25.431 31.5216 25.431 31.4159C25.431 31.4128 25.431 31.4097 25.431 31.4066C25.431 31.2118 25.431 30.997 25.4624 30.8085C25.4798 30.7042 25.5784 30.6338 25.6826 30.6512Z" fill="white"/>
</svg>
