<svg width="78" height="32" viewBox="0 0 78 32" fill="none" xmlns="http://www.w3.org/2000/svg">
<path d="M16.9512 13.7702C17.5497 13.4169 18.046 12.9131 18.3911 12.3085C18.7363 11.704 18.9184 11.0196 18.9195 10.3228C18.9206 9.6261 18.7406 8.94112 18.3973 8.3355C18.054 7.72987 17.5592 7.22453 16.9619 6.86934L5.97513 0.528993C5.36805 0.180429 4.68035 -0.00199001 3.98091 1.63737e-05C3.28147 0.00202276 2.59483 0.188377 1.98974 0.540418C1.38465 0.892459 0.882364 1.39783 0.533162 2.00593C0.183959 2.61403 9.9156e-05 3.30352 0 4.00534V23.9431C0.00141394 25.0051 0.422505 26.0231 1.17092 26.7739C1.91934 27.5248 2.93398 27.9472 3.99233 27.9484H7.98464V18.9675L16.9512 13.7702ZM1.69429 4.00534C1.69459 3.6019 1.80034 3.20559 2.001 2.85598C2.20166 2.50637 2.49021 2.21569 2.83783 2.01296C3.18545 1.81022 3.57998 1.70252 3.98205 1.70062C4.38412 1.69871 4.77965 1.80266 5.12917 2.00209L16.1034 8.33588C16.4461 8.53921 16.7297 8.82894 16.9262 9.17628C17.1227 9.52362 17.2253 9.91649 17.2237 10.3159C17.2227 10.7164 17.1183 11.1099 16.9206 11.4578C16.7229 11.8058 16.4387 12.0964 16.0957 12.3013L1.95194 20.5013C1.86645 20.5519 1.78453 20.6067 1.70379 20.6633L1.69369 20.6699L1.69429 4.00534ZM6.28917 19.9491V26.2496H3.99114C3.38191 26.2488 2.79788 26.0055 2.36726 25.573C1.93664 25.1406 1.6946 24.5544 1.69429 23.9431C1.69201 23.5445 1.79379 23.1523 1.98949 22.8055C2.18519 22.4586 2.46799 22.1692 2.80976 21.9661L6.28917 19.9491Z" fill="white"/>
<path d="M19.497 25.6644V21.1671C19.5065 20.7167 19.42 20.2694 19.2432 19.8553C19.0663 19.4412 18.8033 19.0698 18.4718 18.7659C17.7078 18.1506 16.744 17.8406 15.7659 17.8957C15.0813 17.8886 14.4029 18.027 13.7754 18.3019C13.208 18.5445 12.7111 18.9273 12.331 19.4146C11.9924 19.8328 11.8027 20.3526 11.792 20.8913V20.9979H13.6774V20.8913C13.6808 20.6902 13.7336 20.493 13.8313 20.3174C13.929 20.1417 14.0684 19.9931 14.2373 19.8846C14.654 19.5881 15.1562 19.4371 15.6668 19.4545C15.9306 19.435 16.1957 19.4681 16.4467 19.5518C16.6978 19.6355 16.9298 19.7683 17.1295 19.9424C17.2963 20.1173 17.4257 20.3244 17.51 20.5512C17.5943 20.7779 17.6317 21.0195 17.6199 21.2612V21.9218H16.1073C14.9395 21.8538 13.7799 22.1562 12.7929 22.7861C12.4054 23.0632 12.0927 23.4327 11.8833 23.8614C11.6738 24.2901 11.5741 24.7644 11.5931 25.2415C11.5844 25.6489 11.6659 26.0532 11.8315 26.4252C11.9972 26.7972 12.243 27.1278 12.5513 27.3931C13.2289 27.9698 14.0974 28.2707 14.9853 28.2365C15.9897 28.2445 16.9564 27.853 17.6739 27.1477C17.704 27.4399 17.7768 27.7261 17.89 27.9971L17.9197 28.0566H19.8366V27.8053L19.8277 27.763C19.5805 27.0922 19.4681 26.379 19.497 25.6644ZM16.657 26.1767C16.2231 26.4326 15.729 26.5679 15.2257 26.5687C14.7656 26.5881 14.314 26.44 13.9541 26.1517C13.7912 26.0107 13.6628 25.834 13.5789 25.6353C13.495 25.4366 13.4578 25.2211 13.4703 25.0056C13.4703 23.8691 14.4361 23.3163 16.4225 23.3163H17.6205V25.1879C17.4047 25.6069 17.0692 25.9518 16.657 26.1785V26.1767Z" fill="white"/>
<path d="M26.5399 17.8971C26.0204 17.8846 25.5042 17.9839 25.0261 18.1882C24.548 18.3926 24.1191 18.6973 23.7681 19.0819V13.98H21.8916V28.0587H23.7681V21.0161C23.9768 20.5879 24.2894 20.2193 24.677 19.9439C25.0756 19.666 25.5513 19.5214 26.0365 19.5305C26.2886 19.5088 26.5424 19.5395 26.7821 19.6206C27.0219 19.7018 27.2424 19.8317 27.4298 20.0022C27.7599 20.4249 27.9212 20.9558 27.8822 21.4914V28.0587H29.7587V21.4956C29.7403 19.1081 28.6569 17.8971 26.5399 17.8971Z" fill="white"/>
<path d="M39.6621 25.6644V21.1671C39.6716 20.7167 39.585 20.2694 39.4082 19.8553C39.2314 19.4412 38.9684 19.0698 38.6368 18.7659C37.8729 18.1506 36.9091 17.8406 35.931 17.8957C35.2463 17.8886 34.5679 18.027 33.9404 18.3019C33.3732 18.5442 32.8763 18.9266 32.4961 19.4134C32.1577 19.8317 31.9682 20.3514 31.9576 20.8901V20.9967H33.8431V20.8901C33.8464 20.689 33.8993 20.4918 33.9969 20.3162C34.0946 20.1405 34.2341 19.9919 34.4029 19.8834C34.8197 19.587 35.3218 19.4359 35.8324 19.4533C36.0963 19.4338 36.3613 19.4669 36.6124 19.5506C36.8634 19.6343 37.0955 19.7671 37.2952 19.9412C37.4619 20.1161 37.5914 20.3232 37.6757 20.55C37.76 20.7767 37.7974 21.0183 37.7855 21.26V21.9206H36.2729C35.1051 21.8526 33.9456 22.155 32.9585 22.7849C32.571 23.062 32.2584 23.4315 32.0489 23.8602C31.8394 24.2889 31.7397 24.7632 31.7588 25.2403C31.7501 25.6477 31.8315 26.052 31.9972 26.424C32.1628 26.796 32.4087 27.1266 32.7169 27.3919C33.3946 27.9686 34.263 28.2695 35.1509 28.2354C36.157 28.2445 37.1256 27.8529 37.8443 27.1465C37.8744 27.4387 37.9472 27.7249 38.0604 27.9959L38.0901 28.0555H40.0046V27.8041L39.9957 27.7618C39.7476 27.0916 39.6342 26.3788 39.6621 25.6644ZM36.822 26.1767C36.3881 26.4326 35.8941 26.5679 35.3907 26.5687C34.9306 26.5881 34.479 26.44 34.1191 26.1517C33.9562 26.0107 33.8278 25.834 33.7439 25.6353C33.66 25.4366 33.6229 25.2211 33.6353 25.0056C33.6353 23.8691 34.6012 23.3163 36.5875 23.3163H37.7855V25.1879C37.5696 25.6068 37.2342 25.9517 36.822 26.1785V26.1767Z" fill="white"/>
<path d="M52.5442 17.8972C51.9499 17.8777 51.3595 18.0013 50.8225 18.2576C50.2854 18.5138 49.8173 18.8954 49.4572 19.3703C49.1818 18.881 48.7716 18.4818 48.2758 18.2205C47.7799 17.9592 47.2195 17.847 46.6617 17.8972C46.1457 17.8784 45.6314 17.9671 45.1512 18.1575C44.671 18.348 44.2353 18.6362 43.8716 19.0039L43.833 18.0783H42.052V28.057H43.9285V20.8398C44.0982 20.4227 44.396 20.0708 44.7786 19.8352C45.1612 19.5995 45.6088 19.4924 46.0562 19.5293C47.383 19.5293 48.0277 20.1911 48.0277 21.5546V28.0606H49.9149V21.4808C49.9527 20.9368 50.1943 20.4273 50.5911 20.0547C50.9953 19.6978 51.5199 19.509 52.058 19.527C52.3313 19.4992 52.6075 19.5278 52.8693 19.6111C53.1312 19.6943 53.3733 19.8305 53.5807 20.0112C53.9113 20.4354 54.0714 20.9684 54.0296 21.5052V28.0576H55.9061V21.4045C55.8699 19.0772 54.7384 17.8972 52.5442 17.8972Z" fill="white"/>
<path d="M59.2986 14.5215C59.1484 14.5116 58.9978 14.5348 58.8575 14.5893C58.7171 14.6438 58.5903 14.7284 58.4858 14.8372C58.3028 15.0458 58.2049 15.3159 58.2116 15.5937C58.204 15.8696 58.3026 16.1378 58.487 16.3425C58.5928 16.4484 58.72 16.5305 58.8599 16.5832C58.9999 16.6359 59.1494 16.658 59.2986 16.6481C59.4419 16.6612 59.5864 16.6433 59.7222 16.5956C59.8581 16.5479 59.9821 16.4715 60.086 16.3715C60.1899 16.2716 60.2712 16.1504 60.3244 16.0162C60.3776 15.8821 60.4015 15.738 60.3945 15.5937C60.4011 15.3147 60.3013 15.0437 60.1154 14.836C60.0098 14.7277 59.8822 14.6435 59.7412 14.5892C59.6003 14.535 59.4493 14.5119 59.2986 14.5215Z" fill="white"/>
<path d="M60.2253 18.0774H58.3488V28.0561H60.2253V18.0774Z" fill="white"/>
<path d="M66.8008 13.7905C66.3549 13.7638 65.9082 13.829 65.4883 13.9819C65.0684 14.1348 64.6841 14.3724 64.3591 14.6798C64.0571 15.0188 63.825 15.4143 63.6763 15.8437C63.5275 16.2731 63.465 16.7279 63.4924 17.1817V18.0752H61.9542V19.5793H63.4924V28.0539H65.3689V19.5816H67.4467V18.0776H65.3689V17.1519C65.3374 16.685 65.4847 16.2237 65.7809 15.8622C65.9342 15.7098 66.118 15.5917 66.3201 15.5157C66.5221 15.4396 66.738 15.4073 66.9534 15.4209C67.2485 15.4195 67.543 15.446 67.8331 15.5001L67.9519 15.5227L68.0558 13.9692L67.9715 13.9466C67.5897 13.8434 67.1962 13.7909 66.8008 13.7905Z" fill="white"/>
<path d="M75.2844 18.0774L73.0926 25.1552L70.7441 18.0774H68.699L72.2093 27.8405L71.853 28.8001C71.7325 29.2663 71.4747 29.6852 71.1134 30.0022C70.7413 30.2372 70.3056 30.35 69.8667 30.325L69.3021 30.2798V31.8374L70.0199 31.9727L70.344 32.0001C71.7058 32.0001 72.7109 31.1572 73.3319 29.4917L77.2446 18.2192L77.2933 18.0774H75.2844Z" fill="white"/>
</svg>
